<svg width="72" height="72" viewBox="0 0 72 72" fill="none" xmlns="http://www.w3.org/2000/svg">
<g clip-path="url(#clip0_1_3469)">
<path d="M59.6496 21.7609C60.1129 20.0825 60.111 18.3097 59.6442 16.6323C59.1773 14.955 58.2631 13.4361 56.9993 12.2384C55.7356 11.0407 54.1699 10.2093 52.4698 9.83312C50.7698 9.45694 48.9995 9.55018 47.3484 10.1029C46.3506 6.9176 44.2772 4.17791 41.4828 2.35229C38.6884 0.52667 35.3465 -0.271479 32.0288 0.0943304C28.711 0.460139 25.6233 1.96718 23.2938 4.35775C20.9642 6.74832 19.5375 9.87392 19.2576 13.2001C18.0436 13.1903 16.8419 13.4441 15.7356 13.9439C14.6292 14.4438 13.6445 15.1779 12.8495 16.0954C12.0545 17.013 11.4681 18.0921 11.1309 19.2584C10.7936 20.4247 10.7135 21.6502 10.896 22.8505C8.36137 23.08 5.96576 24.111 4.05664 25.7939C2.14752 27.4769 0.82417 29.7243 0.27854 32.2101C-0.267091 34.6959 -0.00663004 37.2909 1.02214 39.6187C2.05092 41.9466 3.7945 43.8861 6.00001 45.1561V67.2001C6.00001 68.4731 6.50572 69.694 7.40589 70.5942C8.30607 71.4944 9.52697 72.0001 10.8 72.0001C12.073 72.0001 13.2939 71.4944 14.1941 70.5942C15.0943 69.694 15.6 68.4731 15.6 67.2001V50.3641C16.5703 51.6658 17.7951 52.7567 19.2 53.5705V57.6001C19.2 58.5548 19.5793 59.4705 20.2544 60.1456C20.9296 60.8208 21.8452 61.2001 22.8 61.2001C23.7548 61.2001 24.6705 60.8208 25.3456 60.1456C26.0207 59.4705 26.4 58.5548 26.4 57.6001V55.1317C27.2151 55.0483 28.0193 54.881 28.8 54.6325V64.8001C28.8 65.7548 29.1793 66.6705 29.8544 67.3456C30.5296 68.0208 31.4452 68.4001 32.4 68.4001C33.3548 68.4001 34.2705 68.0208 34.9456 67.3456C35.6207 66.6705 36 65.7548 36 64.8001V49.2493C37.2937 49.8954 38.7046 50.2735 40.1481 50.361C41.5915 50.4484 43.0378 50.2433 44.4 49.7581V63.6001C44.4 64.8731 44.9057 66.094 45.8059 66.9942C46.7061 67.8944 47.927 68.4001 49.2 68.4001C50.473 68.4001 51.6939 67.8944 52.5941 66.9942C53.4943 66.094 54 64.8731 54 63.6001V49.9273C54.7865 50.135 55.5895 50.2743 56.4 50.3437V58.8001C56.4 59.7548 56.7793 60.6705 57.4544 61.3456C58.1296 62.0208 59.0452 62.4001 60 62.4001C60.9548 62.4001 61.8705 62.0208 62.5456 61.3456C63.2207 60.6705 63.6 59.7548 63.6 58.8001V49.0861C66.4263 47.7922 68.7576 45.6179 70.245 42.8885C71.7323 40.1591 72.2958 37.0214 71.8511 33.9451C71.4063 30.8687 69.9772 28.0191 67.7778 25.8227C65.5783 23.6263 62.7266 22.2013 59.6496 21.7609ZM63.6 46.3981V44.4001C63.6 44.0818 63.4736 43.7766 63.2485 43.5515C63.0235 43.3265 62.7183 43.2001 62.4 43.2001C62.0817 43.2001 61.7765 43.3265 61.5515 43.5515C61.3264 43.7766 61.2 44.0818 61.2 44.4001V58.8001C61.2 59.1183 61.0736 59.4236 60.8485 59.6486C60.6235 59.8736 60.3183 60.0001 60 60.0001C59.6817 60.0001 59.3765 59.8736 59.1515 59.6486C58.9264 59.4236 58.8 59.1183 58.8 58.8001V45.6001C58.8 45.2818 58.6736 44.9766 58.4485 44.7515C58.2235 44.5265 57.9183 44.4001 57.6 44.4001C57.2817 44.4001 56.9765 44.5265 56.7515 44.7515C56.5264 44.9766 56.4 45.2818 56.4 45.6001V47.9365C55.5845 47.8525 54.7801 47.6831 54 47.4313V39.6001C54 39.2818 53.8736 38.9766 53.6485 38.7515C53.4235 38.5265 53.1183 38.4001 52.8 38.4001C52.4817 38.4001 52.1765 38.5265 51.9515 38.7515C51.7264 38.9766 51.6 39.2818 51.6 39.6001V63.6001C51.6 64.2366 51.3472 64.847 50.8971 65.2971C50.447 65.7472 49.8365 66.0001 49.2 66.0001C48.5635 66.0001 47.953 65.7472 47.5029 65.2971C47.0529 64.847 46.8 64.2366 46.8 63.6001V43.2001C46.8 42.8818 46.6736 42.5766 46.4485 42.3515C46.2235 42.1265 45.9183 42.0001 45.6 42.0001C45.2817 42.0001 44.9765 42.1265 44.7515 42.3515C44.5264 42.5766 44.4 42.8818 44.4 43.2001V47.1601C43.065 47.803 41.5826 48.0779 40.1059 47.9561C38.6291 47.8344 37.2117 47.3205 36 46.4677V43.2001C36 42.8818 35.8736 42.5766 35.6485 42.3515C35.4235 42.1265 35.1183 42.0001 34.8 42.0001C34.4817 42.0001 34.1765 42.1265 33.9515 42.3515C33.7264 42.5766 33.6 42.8818 33.6 43.2001V64.8001C33.6 65.1183 33.4736 65.4236 33.2485 65.6486C33.0235 65.8736 32.7183 66.0001 32.4 66.0001C32.0817 66.0001 31.7765 65.8736 31.5515 65.6486C31.3264 65.4236 31.2 65.1183 31.2 64.8001V45.6001C31.2 45.2818 31.0736 44.9766 30.8485 44.7515C30.6235 44.5265 30.3183 44.4001 30 44.4001C29.6817 44.4001 29.3765 44.5265 29.1515 44.7515C28.9264 44.9766 28.8 45.2818 28.8 45.6001V52.0897C28.0303 52.402 27.2237 52.6141 26.4 52.7209V49.2001C26.4 48.8818 26.2736 48.5766 26.0485 48.3515C25.8235 48.1265 25.5183 48.0001 25.2 48.0001C24.8817 48.0001 24.5765 48.1265 24.3515 48.3515C24.1264 48.5766 24 48.8818 24 49.2001V57.6001C24 57.9183 23.8736 58.2236 23.6485 58.4486C23.4235 58.6736 23.1183 58.8001 22.8 58.8001C22.4817 58.8001 22.1765 58.6736 21.9515 58.4486C21.7264 58.2236 21.6 57.9183 21.6 57.6001V44.4001C21.6 44.0818 21.4736 43.7766 21.2485 43.5515C21.0235 43.3265 20.7183 43.2001 20.4 43.2001C20.0817 43.2001 19.7765 43.3265 19.5515 43.5515C19.3264 43.7766 19.2 44.0818 19.2 44.4001V50.6821C17.4315 49.2636 16.2207 47.2662 15.7812 45.0421C15.7503 44.887 15.6887 44.7397 15.6 44.6089V42.0001C15.6 41.6818 15.4736 41.3766 15.2485 41.1515C15.0235 40.9265 14.7183 40.8001 14.4 40.8001C14.0817 40.8001 13.7765 40.9265 13.5515 41.1515C13.3264 41.3766 13.2 41.6818 13.2 42.0001V67.2001C13.2 67.8366 12.9471 68.447 12.4971 68.8971C12.047 69.3472 11.4365 69.6001 10.8 69.6001C10.1635 69.6001 9.55304 69.3472 9.10295 68.8971C8.65286 68.447 8.40001 67.8366 8.40001 67.2001V39.6001C8.40001 39.2818 8.27358 38.9766 8.04853 38.7515C7.82349 38.5265 7.51827 38.4001 7.20001 38.4001C6.88175 38.4001 6.57652 38.5265 6.35148 38.7515C6.12643 38.9766 6.00001 39.2818 6.00001 39.6001V42.2665C4.42567 41.0093 3.28811 39.2875 2.74931 37.3462C2.21052 35.405 2.29797 33.3432 2.9992 31.4545C3.70043 29.5658 4.97969 27.9465 6.65482 26.8272C8.32995 25.7078 10.3155 25.1456 12.3288 25.2205C12.5299 25.2378 12.7321 25.2042 12.9167 25.1226C13.1013 25.0411 13.2624 24.9143 13.385 24.754C13.5077 24.5937 13.5879 24.405 13.6182 24.2055C13.6486 24.006 13.6282 23.802 13.5588 23.6125C13.2368 22.708 13.1365 21.7395 13.2664 20.7883C13.3963 19.8371 13.7526 18.9309 14.3052 18.1459C14.8579 17.3609 15.5909 16.72 16.4426 16.277C17.2944 15.834 18.24 15.6019 19.2 15.6001C20.178 15.6001 20.52 15.9313 21.18 15.3601C21.3118 15.2372 21.4171 15.0886 21.4893 14.9235C21.5616 14.7584 21.5992 14.5803 21.6 14.4001C21.5943 11.4232 22.6953 8.55056 24.689 6.34003C26.6828 4.1295 29.427 2.73893 32.3886 2.43843C35.3503 2.13793 38.3179 2.94895 40.715 4.71396C43.1121 6.47898 44.7677 9.07197 45.36 11.9893C45.3977 12.1707 45.4769 12.341 45.5914 12.4868C45.7059 12.6325 45.8526 12.7497 46.02 12.8293C47.0808 13.3381 47.6328 12.0001 50.4 12.0001C51.616 12.0011 52.8119 12.3101 53.8762 12.8982C54.9405 13.4864 55.8385 14.3345 56.4865 15.3634C57.1344 16.3924 57.5112 17.5687 57.5817 18.7827C57.6522 19.9966 57.4141 21.2086 56.8896 22.3057C56.8031 22.4861 56.7631 22.6854 56.7732 22.8853C56.7833 23.0852 56.8433 23.2794 56.9477 23.4502C57.052 23.621 57.1975 23.7629 57.3707 23.8632C57.544 23.9634 57.7395 24.0187 57.9396 24.0241C60.5503 24.0964 63.066 25.019 65.1044 26.6518C67.1428 28.2845 68.5924 30.5381 69.2329 33.07C69.8735 35.6019 69.6699 38.2737 68.6532 40.6794C67.6365 43.085 65.8622 45.093 63.6 46.3981Z" fill="#0C3B8F"/>
<path d="M33.6 4.79995C31.0406 4.81741 28.5926 5.84925 26.7929 7.66917C24.9932 9.48909 23.9888 11.9485 24 14.508C24 14.8262 24.1264 15.1314 24.3515 15.3565C24.5765 15.5815 24.8817 15.708 25.2 15.708C25.5183 15.708 25.8235 15.5815 26.0485 15.3565C26.2736 15.1314 26.4 14.8262 26.4 14.508C26.3878 12.5847 27.1391 10.7352 28.4889 9.36516C29.8387 7.99512 31.6768 7.21644 33.6 7.19995C33.9183 7.19995 34.2235 7.07353 34.4485 6.84848C34.6736 6.62344 34.8 6.31821 34.8 5.99995C34.8 5.68169 34.6736 5.37647 34.4485 5.15143C34.2235 4.92638 33.9183 4.79995 33.6 4.79995ZM13.2 10.8C14.1493 10.8 15.0774 10.5184 15.8667 9.99101C16.6561 9.46358 17.2713 8.71392 17.6346 7.83683C17.9979 6.95975 18.093 5.99463 17.9078 5.06352C17.7226 4.13241 17.2654 3.27713 16.5941 2.60584C15.9228 1.93455 15.0675 1.47739 14.1364 1.29218C13.2053 1.10697 12.2402 1.20203 11.3631 1.56533C10.486 1.92863 9.73637 2.54386 9.20894 3.33322C8.68151 4.12257 8.39999 5.0506 8.39999 5.99995C8.39999 7.27299 8.90571 8.49389 9.80588 9.39407C10.7061 10.2942 11.927 10.8 13.2 10.8ZM13.2 3.59995C13.6747 3.59995 14.1387 3.74071 14.5334 4.00443C14.928 4.26814 15.2357 4.64297 15.4173 5.08151C15.599 5.52006 15.6465 6.00262 15.5539 6.46817C15.4613 6.93372 15.2327 7.36136 14.897 7.69701C14.5614 8.03266 14.1338 8.26123 13.6682 8.35384C13.2027 8.44644 12.7201 8.39892 12.2816 8.21726C11.843 8.03561 11.4682 7.728 11.2045 7.33332C10.9408 6.93864 10.8 6.47463 10.8 5.99995C10.8 5.36343 11.0529 4.75298 11.5029 4.3029C11.953 3.85281 12.5635 3.59995 13.2 3.59995ZM64.8 14.4C65.9867 14.4 67.1467 14.0481 68.1334 13.3888C69.1201 12.7295 69.8891 11.7924 70.3433 10.6961C70.7974 9.5997 70.9162 8.3933 70.6847 7.22941C70.4532 6.06553 69.8818 4.99643 69.0426 4.15731C68.2035 3.3182 67.1344 2.74675 65.9705 2.51524C64.8067 2.28373 63.6003 2.40255 62.5039 2.85668C61.4075 3.3108 60.4705 4.07984 59.8112 5.06653C59.1519 6.05323 58.8 7.21327 58.8 8.39995C58.8019 9.99067 59.4347 11.5157 60.5595 12.6405C61.6843 13.7653 63.2093 14.398 64.8 14.4ZM64.8 4.79995C65.512 4.79995 66.208 5.01109 66.8 5.40666C67.3921 5.80224 67.8535 6.36448 68.126 7.02229C68.3984 7.68011 68.4697 8.40395 68.3308 9.10228C68.1919 9.80061 67.849 10.4421 67.3456 10.9455C66.8421 11.449 66.2007 11.7919 65.5023 11.9308C64.804 12.0697 64.0802 11.9984 63.4223 11.7259C62.7645 11.4534 62.2023 10.992 61.8067 10.4C61.4111 9.80799 61.2 9.11197 61.2 8.39995C61.2 7.44517 61.5793 6.5295 62.2544 5.85437C62.9295 5.17924 63.8452 4.79995 64.8 4.79995Z" fill="#0C3B8F"/>
</g>
<defs>
<clipPath id="clip0_1_3469">
<rect width="72" height="72" fill="white"/>
</clipPath>
</defs>
</svg>
