<svg width="72" height="72" viewBox="0 0 72 72" fill="none" xmlns="http://www.w3.org/2000/svg">
<path d="M16.6146 47.4233V58.3921C16.6146 58.6531 16.7183 58.9035 16.9029 59.0881C17.0875 59.2727 17.3379 59.3764 17.5989 59.3764H36.7239C36.985 59.3764 37.2354 59.2727 37.42 59.0881C37.6046 58.9035 37.7083 58.6531 37.7083 58.3921V47.4233C37.7084 47.294 37.683 47.166 37.6335 47.0465C37.5841 46.927 37.5116 46.8185 37.4202 46.7271C37.3287 46.6357 37.2202 46.5632 37.1007 46.5137C36.9813 46.4643 36.8532 46.4389 36.7239 46.4389H17.5989C17.4696 46.4389 17.3416 46.4643 17.2221 46.5137C17.1027 46.5632 16.9941 46.6357 16.9027 46.7271C16.8113 46.8185 16.7388 46.927 16.6893 47.0465C16.6399 47.166 16.6145 47.294 16.6146 47.4233ZM18.5833 48.4077H35.7396V57.4077H18.5833V48.4077ZM20.4114 21.6096C20.1504 21.6096 19.9 21.7133 19.7154 21.8979C19.5308 22.0825 19.4271 22.3329 19.4271 22.594C19.4271 22.8551 19.5308 23.1054 19.7154 23.2901C19.9 23.4747 20.1504 23.5784 20.4114 23.5784H33.9114C34.1725 23.5784 34.4229 23.4747 34.6075 23.2901C34.7921 23.1054 34.8958 22.8551 34.8958 22.594C34.8958 22.3329 34.7921 22.0825 34.6075 21.8979C34.4229 21.7133 34.1725 21.6096 33.9114 21.6096H20.4114ZM20.4114 27.9844H33.9114C34.1725 27.9844 34.4229 27.8807 34.6075 27.6961C34.7921 27.5115 34.8958 27.2611 34.8958 27.0001C34.8958 26.739 34.7921 26.4886 34.6075 26.304C34.4229 26.1194 34.1725 26.0157 33.9114 26.0157H20.4114C20.1504 26.0157 19.9 26.1194 19.7154 26.304C19.5308 26.4886 19.4271 26.739 19.4271 27.0001C19.4271 27.2611 19.5308 27.5115 19.7154 27.6961C19.9 27.8807 20.1504 27.9844 20.4114 27.9844ZM20.4114 32.3905H33.9114C34.0407 32.3905 34.1687 32.365 34.2881 32.3156C34.4076 32.2661 34.5161 32.1936 34.6075 32.1022C34.6989 32.0108 34.7714 31.9023 34.8209 31.7828C34.8704 31.6634 34.8958 31.5354 34.8958 31.4061C34.8958 31.2768 34.8704 31.1488 34.8209 31.0294C34.7714 30.91 34.6989 30.8015 34.6075 30.7101C34.5161 30.6187 34.4076 30.5461 34.2881 30.4967C34.1687 30.4472 34.0407 30.4217 33.9114 30.4217H20.4114C20.1504 30.4217 19.9 30.5255 19.7154 30.7101C19.5308 30.8947 19.4271 31.145 19.4271 31.4061C19.4271 31.6672 19.5308 31.9176 19.7154 32.1022C19.9 32.2868 20.1504 32.3905 20.4114 32.3905Z" fill="#0C3B8F"/>
<path d="M68.9023 13.5371C68.7708 13.4467 68.6194 13.3895 68.461 13.3705C68.3025 13.3515 68.1419 13.3712 67.9927 13.428L63.1851 15.2618H61.0279C59.7251 12.0066 56.4081 7.00763 48.1376 5.43431C43.4221 4.51619 38.555 4.74479 33.9463 6.10087V3.65625C33.9462 3.39532 33.8425 3.14511 33.658 2.96055C33.4736 2.776 33.2234 2.67217 32.9625 2.67188H21.3604C21.0993 2.67202 20.8491 2.77578 20.6645 2.96036C20.4799 3.14493 20.3761 3.39522 20.376 3.65625V12.6225H18.801C16.8171 12.6202 14.9084 13.3813 13.4704 14.748C12.0323 16.1147 11.1753 17.9823 11.0767 19.9637L9.531 50.1323C8.87862 49.673 8.11257 49.4018 7.31652 49.3484C6.52048 49.295 5.72507 49.4614 5.01717 49.8293C4.30928 50.1973 3.71613 50.7528 3.30252 51.4351C2.88891 52.1173 2.67075 52.9001 2.67188 53.6979V64.9688C2.67115 65.8284 2.92483 66.6691 3.40097 67.3849C3.8771 68.1007 4.5544 68.6597 5.34756 68.9913C6.14072 69.3229 7.01427 69.4124 7.85821 69.2486C8.70214 69.0847 9.47871 68.6747 10.0901 68.0704C10.9012 68.8718 11.9941 69.3234 13.1344 69.3281H41.1863C42.327 69.3232 43.4204 68.8713 44.2316 68.0693C44.8429 68.6737 45.6195 69.0838 46.4634 69.2478C47.3073 69.4119 48.1809 69.3225 48.9741 68.991C49.7674 68.6595 50.4448 68.1006 50.921 67.3849C51.3972 66.6691 51.651 65.8285 51.6504 64.9688V53.6979C51.6515 52.9001 51.4333 52.1172 51.0196 51.435C50.606 50.7527 50.0127 50.1973 49.3048 49.8293C48.5968 49.4614 47.8013 49.2951 47.0052 49.3486C46.2092 49.4021 45.4431 49.6734 44.7907 50.1328L43.2495 19.9631C43.1481 17.9822 42.2897 16.1158 40.8515 14.7497C39.4134 13.3836 37.5054 12.6221 35.5219 12.6225H33.9469V8.18494C38.4141 6.76402 43.1658 6.48344 47.7692 7.36875C54.5293 8.65519 57.5449 12.447 58.8774 15.2623H58.3042C58.0432 15.2625 57.7929 15.3662 57.6084 15.5508C57.4238 15.7354 57.32 15.9857 57.3199 16.2467V27.5625C57.3204 27.7987 57.4059 28.0267 57.5609 28.2049C57.7158 28.3831 57.9298 28.4995 58.1636 28.5328V59.3578C57.9366 59.3898 57.7279 59.5002 57.5738 59.6699C57.4197 59.8397 57.3299 60.058 57.3199 60.2871L56.9824 68.301C56.9768 68.4336 56.9982 68.5659 57.0451 68.6901C57.092 68.8142 57.1635 68.9276 57.2554 69.0234C57.3472 69.1191 57.4575 69.1954 57.5795 69.2475C57.7016 69.2995 57.8329 69.3264 57.9656 69.3264H63.7031C63.8358 69.3265 63.9671 69.2998 64.0892 69.2479C64.2112 69.196 64.3215 69.12 64.4135 69.0243C64.5054 68.9287 64.5771 68.8155 64.6242 68.6915C64.6713 68.5675 64.6928 68.4352 64.6875 68.3027L64.35 60.2887C64.34 60.0597 64.2502 59.8414 64.0961 59.6716C63.9419 59.5019 63.7333 59.3915 63.5063 59.3595V28.5345C63.7404 28.5014 63.9548 28.3848 64.1098 28.2062C64.2649 28.0276 64.3502 27.799 64.35 27.5625V20.0548L68.4804 19.4709C68.7148 19.4371 68.9291 19.3199 69.0841 19.1409C69.2391 18.9618 69.3243 18.7329 69.3242 18.4961V14.3477C69.3246 14.1885 69.2864 14.0317 69.2129 13.8905C69.1395 13.7494 69.0329 13.6281 68.9023 13.5371ZM22.3447 4.64062H31.9776V6.80906C28.6779 8.18437 26.3357 10.2173 25.2692 12.6225H22.3442L22.3447 4.64062ZM7.03125 67.3594C6.39745 67.3586 5.78981 67.1065 5.34165 66.6584C4.89348 66.2102 4.64137 65.6026 4.64063 64.9688V53.6979C4.64063 53.0639 4.89249 52.4558 5.34082 52.0075C5.78915 51.5592 6.39722 51.3073 7.03125 51.3073C7.66528 51.3073 8.27335 51.5592 8.72168 52.0075C9.17001 52.4558 9.42188 53.0639 9.42188 53.6979V64.9688C9.42113 65.6026 9.16902 66.2102 8.72086 66.6584C8.27269 67.1065 7.66506 67.3586 7.03125 67.3594ZM47.2911 51.3073C47.9249 51.3081 48.5325 51.5602 48.9807 52.0083C49.4288 52.4565 49.6809 53.0641 49.6817 53.6979V64.9688C49.6817 65.6028 49.4298 66.2108 48.9815 66.6592C48.5332 67.1075 47.9251 67.3594 47.2911 67.3594C46.657 67.3594 46.049 67.1075 45.6006 66.6592C45.1523 66.2108 44.9004 65.6028 44.9004 64.9688V53.6979C44.9012 53.0641 45.1533 52.4565 45.6015 52.0083C46.0496 51.5602 46.6573 51.3081 47.2911 51.3073ZM41.283 20.0638L42.975 53.1281C42.9489 53.317 42.935 53.5073 42.9334 53.6979V64.9688C42.934 65.4296 43.0078 65.8873 43.1522 66.3249C42.9329 66.6434 42.6396 66.9039 42.2975 67.0841C41.9553 67.2642 41.5746 67.3587 41.1879 67.3594H13.1344C12.7481 67.3584 12.3677 67.2638 12.026 67.0838C11.6842 66.9037 11.3911 66.6435 11.1718 66.3255C11.3162 65.8877 11.39 65.4297 11.3906 64.9688V53.6979C11.3891 53.5065 11.375 53.3154 11.3484 53.1259L13.0427 20.0627C13.1163 18.5861 13.7551 17.1945 14.8266 16.1759C15.8981 15.1574 17.3204 14.59 18.7987 14.5913H35.5219C37.0006 14.5912 38.4229 15.159 39.495 16.1774C40.5671 17.1958 41.2072 18.587 41.283 20.0638ZM27.4916 12.6225C28.6124 11.0046 30.1674 9.73617 31.9776 8.96344V12.6225H27.4916ZM60.1313 59.3438V28.5469H61.5375V59.3438H60.1313ZM62.3813 19.1976V26.5781H59.2875V17.2305H62.3813V19.1976ZM58.9944 67.3577L59.2476 61.3125H62.4223L62.6754 67.3577H58.9944ZM67.3594 17.6411L64.3511 18.0664V16.9245L67.3594 15.777V17.6411Z" fill="#0C3B8F"/>
</svg>
