<svg width="72" height="72" viewBox="0 0 72 72" fill="none" xmlns="http://www.w3.org/2000/svg">
<path d="M69.75 20.25H46.125C45.8941 20.2499 45.6687 20.3209 45.4795 20.4534C45.2903 20.5858 45.1465 20.7732 45.0675 20.9903L40.8375 32.625H23.4225L20.2275 16.65C20.1756 16.3959 20.0376 16.1675 19.8367 16.0035C19.6357 15.8395 19.3843 15.7499 19.125 15.75H16.875V13.5H21.375C21.5708 13.4999 21.7632 13.4487 21.9331 13.3515C22.103 13.2543 22.2447 13.1144 22.344 12.9456C22.4433 12.7769 22.4968 12.5852 22.4993 12.3894C22.5018 12.1936 22.4532 12.0006 22.3582 11.8294L16.7332 1.70437C16.6359 1.52889 16.4934 1.38262 16.3205 1.28075C16.1477 1.17888 15.9507 1.1251 15.75 1.125H4.5C4.20163 1.125 3.91548 1.24353 3.7045 1.4545C3.49353 1.66548 3.375 1.95163 3.375 2.25V15.75H2.25C1.95163 15.75 1.66548 15.8685 1.4545 16.0795C1.24353 16.2905 1.125 16.5766 1.125 16.875V21.375C1.125 21.6734 1.24353 21.9595 1.4545 22.1705C1.66548 22.3815 1.95163 22.5 2.25 22.5H13.7025L16.8975 38.475C16.9494 38.7291 17.0874 38.9575 17.2883 39.1215C17.4893 39.2855 17.7407 39.3751 18 39.375H45C45.2309 39.3751 45.4563 39.3041 45.6455 39.1716C45.8347 39.0392 45.9785 38.8518 46.0575 38.6348L50.2875 27H50.625V30.375C50.625 30.6734 50.7435 30.9595 50.9545 31.1705C51.1655 31.3815 51.4516 31.5 51.75 31.5H52.875V36H51.75C51.4516 36 51.1655 36.1185 50.9545 36.3295C50.7435 36.5405 50.625 36.8266 50.625 37.125V41.625C50.625 41.9234 50.7435 42.2095 50.9545 42.4205C51.1655 42.6315 51.4516 42.75 51.75 42.75H52.875V69.75C52.8739 69.9423 52.9222 70.1316 53.0151 70.2999C53.108 70.4682 53.2425 70.6099 53.4058 70.7114C53.5691 70.813 53.7556 70.871 53.9477 70.8799C54.1397 70.8889 54.3309 70.8484 54.5029 70.7625L65.7529 65.1375C65.9407 65.0436 66.0986 64.899 66.2085 64.7201C66.3185 64.5412 66.3761 64.335 66.375 64.125V42.75H67.5C67.7984 42.75 68.0845 42.6315 68.2955 42.4205C68.5065 42.2095 68.625 41.9234 68.625 41.625V37.125C68.625 36.8266 68.5065 36.5405 68.2955 36.3295C68.0845 36.1185 67.7984 36 67.5 36H66.375V31.5H67.5C67.7984 31.5 68.0845 31.3815 68.2955 31.1705C68.5065 30.9595 68.625 30.6734 68.625 30.375V27H69.75C70.0484 27 70.3345 26.8815 70.5455 26.6705C70.7565 26.4595 70.875 26.1734 70.875 25.875V21.375C70.875 21.0766 70.7565 20.7905 70.5455 20.5795C70.3345 20.3685 70.0484 20.25 69.75 20.25ZM5.625 3.375H15.0885L19.4625 11.25H15.75C15.4516 11.25 15.1655 11.3685 14.9545 11.5795C14.7435 11.7905 14.625 12.0766 14.625 12.375V15.75H5.625V3.375ZM64.125 63.4297L55.125 67.9297V42.75H64.125V63.4297ZM66.375 40.5H52.875V38.25H66.375V40.5ZM55.125 36V31.5H64.125V36H55.125ZM66.375 29.25H52.875V27H66.375V29.25ZM68.625 24.75H49.5C49.2691 24.7499 49.0437 24.8209 48.8545 24.9534C48.6653 25.0858 48.5215 25.2732 48.4425 25.4903L44.2125 37.125H18.9225L15.7275 21.15C15.6756 20.8959 15.5376 20.6675 15.3367 20.5035C15.1357 20.3395 14.8843 20.2499 14.625 20.25H3.375V18H18.2025L21.3975 33.975C21.4494 34.2291 21.5874 34.4575 21.7883 34.6215C21.9893 34.7855 22.2407 34.8751 22.5 34.875H41.625C41.8559 34.8751 42.0813 34.8041 42.2705 34.6716C42.4597 34.5392 42.6035 34.3518 42.6825 34.1348L46.9125 22.5H68.625V24.75Z" fill="#0C3B8F"/>
<path d="M35.0741 16.2359C34.4768 17.0999 31.5 21.5167 31.5 23.6249C31.5 24.8184 31.9741 25.963 32.818 26.8069C33.6619 27.6508 34.8065 28.1249 36 28.1249C37.1935 28.1249 38.3381 27.6508 39.182 26.8069C40.0259 25.963 40.5 24.8184 40.5 23.6249C40.5 21.5167 37.5233 17.0999 36.9259 16.2359C36.8168 16.094 36.6766 15.9791 36.5161 15.9C36.3555 15.8209 36.179 15.7798 36 15.7798C35.821 15.7798 35.6445 15.8209 35.4839 15.9C35.3234 15.9791 35.1832 16.094 35.0741 16.2359ZM36 25.8749C35.4033 25.8749 34.831 25.6379 34.409 25.2159C33.9871 24.794 33.75 24.2217 33.75 23.6249C33.75 22.8802 34.7996 20.8405 36 18.9235C37.2004 20.836 38.25 22.8802 38.25 23.6249C38.25 24.2217 38.0129 24.794 37.591 25.2159C37.169 25.6379 36.5967 25.8749 36 25.8749ZM28.3241 1.61092C27.7268 2.47492 24.75 6.89167 24.75 8.99992C24.75 10.1934 25.2241 11.338 26.068 12.1819C26.9119 13.0258 28.0565 13.4999 29.25 13.4999C30.4435 13.4999 31.5881 13.0258 32.432 12.1819C33.2759 11.338 33.75 10.1934 33.75 8.99992C33.75 6.89167 30.7733 2.47492 30.1759 1.61092C30.0668 1.46903 29.9266 1.3541 29.7661 1.27501C29.6055 1.19592 29.429 1.15479 29.25 1.15479C29.071 1.15479 28.8945 1.19592 28.7339 1.27501C28.5734 1.3541 28.4332 1.46903 28.3241 1.61092ZM29.25 11.2499C28.6533 11.2499 28.081 11.0129 27.659 10.5909C27.2371 10.169 27 9.59666 27 8.99992C27 8.25517 28.0496 6.21555 29.25 4.29855C30.4504 6.21105 31.5 8.25517 31.5 8.99992C31.5 9.59666 31.2629 10.169 30.841 10.5909C30.419 11.0129 29.8467 11.2499 29.25 11.2499ZM47.25 8.99992C47.25 6.89167 44.2733 2.47492 43.6759 1.61092C43.5668 1.46903 43.4266 1.3541 43.2661 1.27501C43.1055 1.19592 42.929 1.15479 42.75 1.15479C42.571 1.15479 42.3945 1.19592 42.2339 1.27501C42.0734 1.3541 41.9332 1.46903 41.8241 1.61092C41.2267 2.47492 38.25 6.89167 38.25 8.99992C38.25 10.1934 38.7241 11.338 39.568 12.1819C40.4119 13.0258 41.5565 13.4999 42.75 13.4999C43.9435 13.4999 45.0881 13.0258 45.932 12.1819C46.7759 11.338 47.25 10.1934 47.25 8.99992ZM40.5 8.99992C40.5 8.25517 41.5496 6.21555 42.75 4.29855C43.9504 6.21105 45 8.25517 45 8.99992C45 9.59666 44.7629 10.169 44.341 10.5909C43.919 11.0129 43.3467 11.2499 42.75 11.2499C42.1533 11.2499 41.581 11.0129 41.159 10.5909C40.7371 10.169 40.5 9.59666 40.5 8.99992Z" fill="#0C3B8F"/>
</svg>
