<svg width="72" height="72" viewBox="0 0 72 72" fill="none" xmlns="http://www.w3.org/2000/svg">
<g clip-path="url(#clip0_1_3444)">
<path d="M10.125 31.5C9.23498 31.5 8.36496 31.7639 7.62493 32.2584C6.88491 32.7529 6.30814 33.4557 5.96754 34.2779C5.62695 35.1002 5.53783 36.005 5.71147 36.8779C5.8851 37.7508 6.31368 38.5526 6.94302 39.182C7.57236 39.8113 8.37418 40.2399 9.24709 40.4135C10.12 40.5872 11.0248 40.4981 11.8471 40.1575C12.6693 39.8169 13.3721 39.2401 13.8666 38.5001C14.3611 37.76 14.625 36.89 14.625 36C14.6237 34.8069 14.1491 33.6631 13.3055 32.8195C12.4619 31.9759 11.3181 31.5013 10.125 31.5ZM10.125 38.25C9.67999 38.25 9.24498 38.118 8.87497 37.8708C8.50496 37.6236 8.21657 37.2722 8.04627 36.861C7.87597 36.4499 7.83142 35.9975 7.91823 35.561C8.00505 35.1246 8.21934 34.7237 8.53401 34.409C8.84868 34.0943 9.24959 33.88 9.68605 33.7932C10.1225 33.7064 10.5749 33.751 10.986 33.9213C11.3972 34.0916 11.7486 34.38 11.9958 34.75C12.243 35.12 12.375 35.555 12.375 36C12.3743 36.5965 12.1371 37.1684 11.7153 37.5902C11.2934 38.0121 10.7215 38.2493 10.125 38.25ZM0.329485 48.2809C0.186729 48.4237 0.0850156 48.6022 0.0350112 48.7978C-0.0149933 48.9934 -0.0114458 49.1988 0.0452815 49.3926L1.07944 52.9232L0.0452815 56.4539C-0.0114737 56.6477 -0.0150374 56.8531 0.0349642 57.0487C0.0849659 57.2444 0.18669 57.4229 0.329465 57.5657C0.47224 57.7084 0.650803 57.8101 0.846423 57.8601C1.04204 57.9101 1.24751 57.9065 1.44127 57.8498L4.9718 56.8156L8.50233 57.8498C8.6961 57.9065 8.90158 57.9101 9.09722 57.8601C9.29286 57.8102 9.47143 57.7084 9.61421 57.5657C9.75699 57.4229 9.85871 57.2443 9.9087 57.0487C9.95869 56.853 9.9551 56.6475 9.89831 56.4538L8.86416 52.9232L9.89831 49.3927C9.95507 49.1989 9.95863 48.9935 9.90863 48.7979C9.85863 48.6022 9.7569 48.4237 9.61413 48.2809C9.47135 48.1382 9.29279 48.0365 9.09717 47.9865C8.90155 47.9365 8.69609 47.9401 8.50233 47.9969L4.9718 49.031L1.44127 47.9969C1.24751 47.9401 1.04205 47.9365 0.846435 47.9865C0.650819 48.0365 0.472259 48.1382 0.329485 48.2809ZM3.33141 52.6071L2.78297 50.7343L4.65567 51.2827C4.86225 51.3433 5.0819 51.3433 5.28848 51.2827L7.16119 50.7343L6.61275 52.607C6.55227 52.8136 6.55227 53.0332 6.61275 53.2398L7.16119 55.1125L5.28848 54.564C5.08188 54.5036 4.86227 54.5036 4.65567 54.564L2.78297 55.1125L3.33141 53.2396C3.39181 53.0331 3.39177 52.8136 3.33127 52.6071H3.33141ZM49.5 50.625H36C35.7016 50.625 35.4155 50.7435 35.2045 50.9545C34.9935 51.1655 34.875 51.4516 34.875 51.75V59.9062C34.8766 61.323 35.4401 62.6813 36.4419 63.6831C37.4437 64.6849 38.802 65.2484 40.2188 65.25H45.2812C46.698 65.2484 48.0563 64.6849 49.0581 63.6831C50.0599 62.6813 50.6234 61.323 50.625 59.9062V51.75C50.625 51.4516 50.5065 51.1655 50.2955 50.9545C50.0845 50.7435 49.7984 50.625 49.5 50.625ZM48.375 59.9062C48.3741 60.7265 48.0478 61.5128 47.4678 62.0928C46.8878 62.6728 46.1015 62.9991 45.2812 63H40.2188C39.3985 62.9991 38.6122 62.6728 38.0322 62.0928C37.4522 61.5128 37.1259 60.7265 37.125 59.9062V52.875H48.375V59.9062ZM42.75 48.375C44.085 48.375 45.3901 47.9791 46.5001 47.2374C47.6101 46.4957 48.4753 45.4415 48.9862 44.2081C49.4971 42.9747 49.6308 41.6175 49.3703 40.3081C49.1099 38.9988 48.467 37.796 47.523 36.852C46.579 35.908 45.3762 35.2651 44.0669 35.0047C42.7575 34.7442 41.4003 34.8779 40.1669 35.3888C38.9335 35.8997 37.8793 36.7649 37.1376 37.8749C36.3959 38.9849 36 40.29 36 41.625C36.002 43.4146 36.7138 45.1303 37.9792 46.3958C39.2447 47.6612 40.9604 48.373 42.75 48.375ZM42.75 37.125C43.64 37.125 44.51 37.3889 45.2501 37.8834C45.9901 38.3779 46.5669 39.0807 46.9075 39.9029C47.2481 40.7252 47.3372 41.63 47.1635 42.5029C46.9899 43.3758 46.5613 44.1776 45.932 44.807C45.3026 45.4363 44.5008 45.8649 43.6279 46.0385C42.755 46.2122 41.8502 46.1231 41.0279 45.7825C40.2057 45.4419 39.5029 44.8651 39.0084 44.1251C38.5139 43.385 38.25 42.515 38.25 41.625C38.2513 40.4319 38.7259 39.2881 39.5695 38.4445C40.4131 37.6009 41.5569 37.1263 42.75 37.125Z" fill="#0C3B8F"/>
<path d="M37.125 0C33.8441 0.00372197 30.6986 1.30871 28.3787 3.62866C26.0587 5.94862 24.7537 9.09409 24.75 12.375V17.8858L15.8273 61.3837L11.8343 66.375H3.375C3.07663 66.375 2.79048 66.4935 2.5795 66.7045C2.36853 66.9155 2.25 67.2016 2.25 67.5V70.875C2.25 71.1734 2.36853 71.4595 2.5795 71.6705C2.79048 71.8815 3.07663 72 3.375 72H24.75C25.0484 72 25.3345 71.8815 25.5455 71.6705C25.7565 71.4595 25.875 71.1734 25.875 70.875V67.5C25.875 67.2016 25.7565 66.9155 25.5455 66.7045C25.3345 66.4935 25.0484 66.375 24.75 66.375H22.5V61.9892L31.4771 18.2267C31.492 18.1523 31.4994 18.0766 31.499 18.0007H31.5V12.5893C31.5 9.36942 34.0234 6.75 37.125 6.75C40.2266 6.75 42.75 9.36942 42.75 12.5893V23.625H41.625C41.3266 23.625 41.0405 23.7435 40.8295 23.9545C40.6185 24.1655 40.5 24.4516 40.5 24.75V28.6183C37.5922 29.4226 35.028 31.1573 33.1995 33.557C31.371 35.9567 30.3789 38.8893 30.375 41.9062V66.6562C30.3766 68.073 30.9401 69.4313 31.9419 70.4331C32.9437 71.4349 34.302 71.9984 35.7188 72H63C66.7219 72 69.75 68.4672 69.75 64.125C69.75 60.2297 67.3131 56.9884 64.125 56.3615V41.9062C64.1208 38.4958 62.854 35.2077 60.5689 32.6761C58.2838 30.1444 55.1422 28.5485 51.75 28.1962V24.75C51.75 24.4516 51.6315 24.1655 51.4205 23.9545C51.2095 23.7435 50.9234 23.625 50.625 23.625H49.5V12.375C49.4963 9.09409 48.1913 5.94862 45.8713 3.62866C43.5514 1.30871 40.4059 0.00372197 37.125 0ZM44.8902 11.25H47.186C47.2281 11.6235 47.2495 11.9991 47.25 12.375V13.5H45V12.5893C44.9996 12.1406 44.9628 11.6927 44.8902 11.25ZM45 15.75H47.25V18H45V15.75ZM46.6695 9H44.1796C43.9583 8.5426 43.6946 8.10692 43.3921 7.69866L45.0309 6.06009C45.7374 6.94171 46.2913 7.93542 46.6695 9ZM41.8141 6.09483C41.3406 5.73327 40.8273 5.42693 40.2843 5.18175L41.9757 3.49031C42.4911 3.77362 42.981 4.10115 43.4398 4.4692L41.8141 6.09483ZM27 14.625H29.25V16.875H27V14.625ZM27.5244 9.1658L29.7616 9.72506C29.4483 10.5745 29.2772 11.4699 29.2553 12.375H27C26.9999 11.2839 27.177 10.2001 27.5244 9.1658ZM30.8699 7.68291L28.4933 7.08891C28.9922 6.27733 29.6023 5.53966 30.306 4.89741L31.9278 6.51923C31.5381 6.87173 31.1838 7.26156 30.8699 7.68291ZM32.1518 3.56091C33.0033 3.0783 33.9207 2.72261 34.875 2.50509V4.8382C34.5188 4.94775 34.171 5.08306 33.8344 5.24306L32.1518 3.56091ZM23.625 69.75H4.5V68.625H23.625V69.75ZM14.7157 66.375L17.4157 63H20.25V66.375H14.7157ZM20.4574 60.75H18.2542L26.7927 19.125H28.9959L20.4574 60.75ZM37.125 2.25C37.9944 2.24977 38.8601 2.36174 39.7008 2.58314L37.7557 4.52813C37.5469 4.51125 37.3375 4.5 37.125 4.5V2.25ZM45 20.25H47.25V23.625H45V20.25ZM42.75 25.875H49.5V28.125H44.1562C43.6866 28.1249 43.2172 28.1487 42.75 28.1962V25.875ZM32.625 66.6562V41.9062C32.6285 38.849 33.8445 35.918 36.0062 33.7562C38.168 31.5945 41.099 30.3785 44.1562 30.375H44.9598C49.3242 30.375 52.875 35.5479 52.875 41.9062V69.75H35.7188C34.8985 69.7491 34.1122 69.4228 33.5322 68.8428C32.9522 68.2628 32.6259 67.4765 32.625 66.6562ZM67.5 64.125C67.5 67.2266 65.4813 69.75 63 69.75C60.5187 69.75 58.5 67.2266 58.5 64.125C58.5 61.0234 60.5187 58.5 63 58.5C65.4813 58.5 67.5 61.0234 67.5 64.125ZM61.875 41.9062V56.3615C58.6869 56.9884 56.25 60.2301 56.25 64.125C56.25 66.3269 57.0296 68.3196 58.2825 69.75H55.125V41.9062C55.125 38.2932 54.1102 34.8827 52.2676 32.303C51.7706 31.6011 51.1975 30.9563 50.5588 30.3803C53.5778 30.4395 56.4534 31.6794 58.5689 33.8341C60.6843 35.9888 61.8712 38.8867 61.875 41.9062Z" fill="#0C3B8F"/>
<path d="M39.375 55.125H41.625V58.5H39.375V55.125ZM13.5 43.875H15.75V46.125H13.5V43.875ZM25.875 59.625H28.125V61.875H25.875V59.625ZM7.875 60.75H10.125V63H7.875V60.75ZM0 41.2031H2.25V43.4531H0V41.2031Z" fill="#0C3B8F"/>
</g>
<defs>
<clipPath id="clip0_1_3444">
<rect width="72" height="72" fill="white"/>
</clipPath>
</defs>
</svg>
