<?xml version="1.0" encoding="UTF-8" standalone="no"?>
<!-- Created with Inkscape (http://www.inkscape.org/) -->

<svg
   version="1.1"
   id="svg4305"
   xml:space="preserve"
   width="682.66669"
   height="682.66669"
   viewBox="0 0 682.66669 682.66669"
   xmlns="http://www.w3.org/2000/svg"
   xmlns:svg="http://www.w3.org/2000/svg"><defs
     id="defs4309"><clipPath
       clipPathUnits="userSpaceOnUse"
       id="clipPath4323"><path
         d="M 0,512 H 512 V 0 H 0 Z"
         id="path4321" /></clipPath></defs><g
     id="g4311"
     transform="matrix(1.3333333,0,0,-1.3333333,0,682.66667)"><g
       id="g4313"
       transform="translate(229.9399,479.168)"><path
         d="m 0,0 -171.859,-201.832 v -169.626 l 177.129,-20.843 111.511,7.477 55.078,71.89 v 111.102 z"
         style="fill:#f9f7f8;fill-opacity:1;fill-rule:evenodd;stroke:none"
         id="path4315" /></g><g
       id="g4317"><g
         id="g4319"
         clip-path="url(#clipPath4323)"><g
           id="g4325"
           transform="translate(238.7124,276.5112)"><path
             d="M 0,0 C -8.066,0 -9.037,1.354 -7.242,8.802 L 8.302,72.567 c 4.209,17.339 -3.651,8.655 -10.274,-0.029 l -70.475,-92.026 c -6.623,-8.626 -7.477,-12.659 3.739,-12.659 h 43.774 c 8.419,0 10.745,-2.767 8.802,-10.686 l -15.072,-61.88 c -2.915,-12.07 3.65,-8.626 10.274,0.029 l 70.474,92.026 C 56.168,-4.003 57.434,0 45.806,0 Z"
             style="fill:#fbba58;fill-opacity:1;fill-rule:evenodd;stroke:none"
             id="path4327" /></g><g
           id="g4329"
           transform="translate(341.2153,464.4487)"><path
             d="m 0,0 v -66.326 l 17.545,-33.118 31.293,-15.721 V 0 L 22.461,7.389 Z"
             style="fill:#f9f7f8;fill-opacity:1;fill-rule:evenodd;stroke:none"
             id="path4331" /></g><g
           id="g4333"
           transform="translate(401.7402,504.4854)"><path
             d="m 0,0 h -72.211 c -4.829,0 -8.773,-3.945 -8.773,-8.743 v -22.521 c 0,-4.828 3.944,-8.773 8.773,-8.773 H -60.525 -11.687 0 c 4.828,0 8.772,3.945 8.772,8.773 V -8.743 C 8.772,-3.945 4.828,0 0,0"
             style="fill:#f37c7c;fill-opacity:1;fill-rule:evenodd;stroke:none"
             id="path4335" /></g><g
           id="g4337"
           transform="translate(235.3271,107.7095)"><path
             d="m 0,0 h -177.246 -7.919 c -6.535,0 -11.893,-5.358 -11.893,-11.922 v -17.841 c 0,-6.535 5.358,-11.922 11.893,-11.922 H 0 C 6.477,-34.355 7.33,-9.891 0,0"
             style="fill:#f37c7c;fill-opacity:1;fill-rule:evenodd;stroke:none"
             id="path4339" /></g><g
           id="g4341"
           transform="translate(246.9844,117.9248)"><path
             d="m 0,0 c -5.946,0 -10.921,-4.475 -11.657,-10.215 -0.059,-0.501 -0.118,-1.001 -0.118,-1.531 V -50.37 c 0,-0.5 0.059,-1.03 0.118,-1.53 0.736,-5.741 5.711,-10.216 11.657,-10.216 H 29.232 L 35.09,-33.383 29.232,0 Z"
             style="fill:#ffd772;fill-opacity:1;fill-rule:evenodd;stroke:none"
             id="path4343" /></g><g
           id="g4345"
           transform="translate(312.2778,153.9873)"><path
             d="m 0,0 c -19.812,0 -36.062,-16.221 -36.062,-36.063 v -62.115 c 0,-19.813 16.221,-36.033 36.062,-36.033 H 69.68 L 82.927,-71.801 69.68,0 Z"
             style="fill:#375e7d;fill-opacity:1;fill-rule:evenodd;stroke:none"
             id="path4347" /></g><g
           id="g4349"
           transform="translate(481.8115,147.7759)"><path
             d="m 0,0 h -60.201 l -8.566,-16.515 8.566,-18.812 H 0 c 9.714,0 17.663,7.949 17.663,17.663 C 17.663,-7.949 9.714,0 0,0"
             style="fill:#f9f7f8;fill-opacity:1;fill-rule:evenodd;stroke:none"
             id="path4351" /></g><g
           id="g4353"
           transform="translate(481.8115,61.2847)"><path
             d="m 0,0 h -60.201 l -9.715,-17.251 9.715,-18.076 H 0 c 9.714,0 17.663,7.949 17.663,17.664 C 17.663,-7.949 9.714,0 0,0"
             style="fill:#f9f7f8;fill-opacity:1;fill-rule:evenodd;stroke:none"
             id="path4355" /></g><g
           id="g4357"
           transform="translate(390.0532,349.2842)"><path
             d="M 0,0 V 115.165 H -12.747 -24.434 V 24.434 Z"
             style="fill:#e5e4ec;fill-opacity:1;fill-rule:evenodd;stroke:none"
             id="path4359" /></g><g
           id="g4361"
           transform="translate(410.5127,473.2212)"><path
             d="m 0,0 v 22.521 c 0,4.798 -3.945,8.743 -8.772,8.743 h -24.434 c 4.828,0 8.772,-3.945 8.772,-8.743 V 0 c 0,-4.828 -3.944,-8.772 -8.772,-8.772 h 12.747 11.687 C -3.945,-8.772 0,-4.828 0,0"
             style="fill:#e6646e;fill-opacity:1;fill-rule:evenodd;stroke:none"
             id="path4363" /></g><g
           id="g4365"
           transform="translate(276.2163,55.8091)"><path
             d="m 0,0 v 22.786 0.147 h -29.232 c -5.946,0 -10.921,4.474 -11.657,10.215 -0.059,0.471 -0.089,0.972 -0.118,1.442 V 11.746 c 0,-0.5 0.059,-1.001 0.118,-1.531 C -40.153,4.475 -35.178,0 -29.232,0 Z"
             style="fill:#fbba58;fill-opacity:1;fill-rule:evenodd;stroke:none"
             id="path4367" /></g><g
           id="g4369"
           transform="translate(381.9575,42.6792)"><path
             d="m 0,0 h -69.68 c -19.782,0 -35.973,16.162 -36.061,35.916 V 13.13 c 0,-19.813 16.22,-36.033 36.061,-36.033 H 0 v 18.694 0.088 z"
             style="fill:#2b4d66;fill-opacity:1;fill-rule:evenodd;stroke:none"
             id="path4371" /></g><g
           id="g4373"
           transform="translate(381.9575,15.625)"><path
             d="m 0,0 v 142.484 c 0,4.474 3.65,8.125 8.125,8.125 h 23.433 c 4.445,0 8.095,-3.651 8.095,-8.125 V 0 c 0,-4.475 -3.65,-8.125 -8.095,-8.125 H 8.125 C 3.65,-8.125 0,-4.475 0,0"
             style="fill:#ffd772;fill-opacity:1;fill-rule:evenodd;stroke:none"
             id="path4375" /></g><g
           id="g4377"
           transform="translate(413.5151,34.5835)"><path
             d="m 0,0 h -23.433 c -4.445,0 -8.066,3.592 -8.125,8.037 v -4.062 -0.089 -18.694 -4.15 c 0,-4.475 3.651,-8.125 8.125,-8.125 H 0 c 4.445,0 8.096,3.65 8.096,8.125 V -8.625 8.096 C 8.096,3.65 4.445,0 0,0"
             style="fill:#fbba58;fill-opacity:1;fill-rule:evenodd;stroke:none"
             id="path4379" /></g><g
           id="g4381"
           transform="translate(481.8115,129.1704)"><path
             d="M 0,0 H -60.201 V -16.721 H 0 c 9.714,0 17.663,7.948 17.663,17.663 0,3.032 -0.766,5.888 -2.12,8.361 C 12.541,3.798 6.682,0 0,0"
             style="fill:#e5e4ec;fill-opacity:1;fill-rule:evenodd;stroke:none"
             id="path4383" /></g><g
           id="g4385"
           transform="translate(481.8115,42.6792)"><path
             d="M 0,0 H -60.201 V -16.721 H 0 c 9.714,0 17.663,7.949 17.663,17.663 0,3.033 -0.766,5.888 -2.12,8.361 C 12.541,3.798 6.682,0 0,0"
             style="fill:#e5e4ec;fill-opacity:1;fill-rule:evenodd;stroke:none"
             id="path4387" /></g><g
           id="g4389"
           transform="translate(401.7988,277.3359)"><path
             d="M 0,0 -171.859,171.834 -343.718,0 V -40.007 L -171.859,131.856 -36.768,-3.238 c 5.152,-5.152 4.062,-9.097 4.062,-16.515 v -103.596 h 12.865 v 4.122 c 0,4.475 3.65,8.125 8.125,8.125 H 0 v 71.095 z"
             style="fill:#e5e4ec;fill-opacity:1;fill-rule:evenodd;stroke:none"
             id="path4391" /></g><g
           id="g4393"
           transform="translate(341.2153,398.123)"><path
             d="m 0,0 -102.091,102.094 c -5.711,5.711 -12.658,5.711 -18.398,0 L -322.463,-99.915 c -8.302,-8.273 -8.302,-21.844 0,-30.116 8.272,-8.272 21.813,-8.272 30.085,0 l 9.244,9.244 171.859,171.834 171.858,-171.834 9.215,-9.244 c 8.301,-8.272 21.843,-8.272 30.115,0 8.272,8.272 8.272,21.843 0,30.116 l -51.075,51.076 z"
             style="fill:#f37c7c;fill-opacity:1;fill-rule:evenodd;stroke:none"
             id="path4395" /></g><g
           id="g4397"
           transform="translate(48.8374,298.0903)"><path
             d="m 0,0 c -8.272,-8.272 -21.813,-17.516 -30.085,-9.214 -1.443,1.413 -2.621,2.973 -3.533,4.651 -4.504,-8.096 -3.326,-18.576 3.533,-25.436 8.272,-8.272 21.813,-8.272 30.085,0 l 9.244,9.245 171.859,171.834 171.858,-171.834 9.215,-9.245 c 8.301,-8.272 21.843,-8.272 30.115,0 6.859,6.86 8.036,17.34 3.532,25.436 -0.942,-1.678 -2.119,-3.238 -3.532,-4.651 -8.272,-8.302 -21.814,0.942 -30.115,9.214 L 181.103,181.078 9.244,9.244 Z"
             style="fill:#e6646e;fill-opacity:1;fill-rule:evenodd;stroke:none"
             id="path4399" /></g><g
           id="g4401"
           transform="translate(235.2095,82.3921)"><path
             d="m 0,0 h -185.135 c -6.035,0 -11.069,4.534 -11.805,10.363 V -4.445 c 0,-6.535 5.357,-11.923 11.893,-11.923 H 0.118 C 0.059,-15.838 0,-15.337 0,-14.837 Z"
             style="fill:#e6646e;fill-opacity:1;fill-rule:evenodd;stroke:none"
             id="path4403" /></g><g
           id="g4405"
           transform="translate(341.0391,338.0972)"><path
             d="m 0,0 69.974,-70.005 c 8.301,-8.272 21.843,-8.272 30.115,0 8.272,8.272 8.272,21.843 0,30.116 L -101.915,162.12 c -5.71,5.711 -12.658,5.711 -18.398,0 L -322.287,-39.889 c -8.301,-8.273 -8.301,-21.844 0,-30.116 8.272,-8.272 21.813,-8.272 30.085,0 l 181.103,181.078 85.782,-85.756"
             style="fill:none;stroke:#000000;stroke-width:15;stroke-linecap:round;stroke-linejoin:round;stroke-miterlimit:10;stroke-dasharray:none;stroke-opacity:1"
             id="path4407" /></g><g
           id="g4409"
           transform="translate(341.2153,464.4487)"><path
             d="m 0,0 v -66.326 m 48.838,-48.839 V 0"
             style="fill:none;stroke:#000000;stroke-width:15;stroke-linecap:round;stroke-linejoin:round;stroke-miterlimit:10;stroke-dasharray:none;stroke-opacity:1"
             id="path4411" /></g><g
           id="g4413"
           transform="translate(329.5288,464.4487)"><path
             d="m 0,0 h 72.211 c 4.828,0 8.773,3.945 8.773,8.772 v 22.521 c 0,4.799 -3.945,8.744 -8.773,8.744 H 0 c -4.828,0 -8.772,-3.945 -8.772,-8.744 V 8.772 C -8.772,3.945 -4.828,0 0,0 Z"
             style="fill:none;stroke:#000000;stroke-width:15;stroke-linecap:round;stroke-linejoin:round;stroke-miterlimit:10;stroke-dasharray:none;stroke-opacity:1"
             id="path4415" /></g><g
           id="g4417"
           transform="translate(213.7788,244.3643)"><path
             d="m 0,0 h -43.774 c -11.216,0 -10.363,4.033 -3.739,12.659 l 70.474,92.026 c 6.624,8.684 14.484,17.368 10.274,0.029 L 17.692,40.949 c -1.796,-7.448 -0.824,-8.802 7.242,-8.802 h 45.805 c 11.628,0 10.363,-4.003 3.739,-12.658 L 4.003,-72.537 C -2.62,-81.192 -9.185,-84.636 -6.271,-72.566 l 15.073,61.88 C 10.745,-2.767 8.419,0 0,0 Z"
             style="fill:none;stroke:#000000;stroke-width:15;stroke-linecap:round;stroke-linejoin:round;stroke-miterlimit:10;stroke-dasharray:none;stroke-opacity:1"
             id="path4419" /></g><g
           id="g4421"
           transform="translate(381.9575,19.7759)"><path
             d="m 0,0 v 134.211 h -69.68 c -19.811,0 -36.061,-16.22 -36.061,-36.062 V 36.033 C -105.741,16.221 -89.521,0 -69.68,0 Z"
             style="fill:none;stroke:#000000;stroke-width:15;stroke-linecap:round;stroke-linejoin:round;stroke-miterlimit:10;stroke-dasharray:none;stroke-opacity:1"
             id="path4423" /></g><g
           id="g4425"
           transform="translate(276.2163,55.8091)"><path
             d="m 0,0 v 62.116 h -29.232 c -6.476,0 -11.775,-5.27 -11.775,-11.746 V 11.746 C -41.007,5.299 -35.708,0 -29.232,0 Z"
             style="fill:none;stroke:#000000;stroke-width:15;stroke-linecap:round;stroke-linejoin:round;stroke-miterlimit:10;stroke-dasharray:none;stroke-opacity:1"
             id="path4427" /></g><g
           id="g4429"
           transform="translate(235.3271,66.0244)"><path
             d="m 0,0 h -185.165 c -6.535,0 -11.893,5.387 -11.893,11.922 v 17.841 c 0,6.564 5.358,11.922 11.893,11.922 H 0"
             style="fill:none;stroke:#000000;stroke-width:15;stroke-linecap:round;stroke-linejoin:round;stroke-miterlimit:10;stroke-dasharray:none;stroke-opacity:1"
             id="path4431" /></g><g
           id="g4433"
           transform="translate(421.6108,147.7759)"><path
             d="m 0,0 v -35.327 h 60.201 c 9.714,0 17.662,7.949 17.662,17.663 C 77.863,-7.949 69.915,0 60.201,0 Z"
             style="fill:none;stroke:#000000;stroke-width:15;stroke-linecap:round;stroke-linejoin:round;stroke-miterlimit:10;stroke-dasharray:none;stroke-opacity:1"
             id="path4435" /></g><g
           id="g4437"
           transform="translate(381.9575,15.625)"><path
             d="m 0,0 v 142.484 c 0,4.474 3.65,8.125 8.125,8.125 h 23.433 c 4.445,0 8.095,-3.651 8.095,-8.125 V 0 c 0,-4.475 -3.65,-8.125 -8.095,-8.125 H 8.125 C 3.65,-8.125 0,-4.475 0,0 Z"
             style="fill:none;stroke:#000000;stroke-width:15;stroke-linecap:round;stroke-linejoin:round;stroke-miterlimit:10;stroke-dasharray:none;stroke-opacity:1"
             id="path4439" /></g><g
           id="g4441"
           transform="translate(58.0811,205.1519)"><path
             d="M 0,0 V 72.184 M 0,-97.442 v 62.763 M 343.718,72.184 V -38.918"
             style="fill:none;stroke:#000000;stroke-width:15;stroke-linecap:round;stroke-linejoin:round;stroke-miterlimit:10;stroke-dasharray:none;stroke-opacity:1"
             id="path4443" /></g><g
           id="g4445"
           transform="translate(421.6108,25.958)"><path
             d="m 0,0 v 35.327 h 60.201 c 9.714,0 17.662,-7.949 17.662,-17.663 C 77.863,7.949 69.915,0 60.201,0 Z"
             style="fill:none;stroke:#000000;stroke-width:15;stroke-linecap:round;stroke-linejoin:round;stroke-miterlimit:10;stroke-dasharray:none;stroke-opacity:1"
             id="path4447" /></g><g
           id="g4449"
           transform="translate(316.4878,105.0894)"><path
             d="M 0,0 V -36.445"
             style="fill:none;stroke:#000000;stroke-width:15;stroke-linecap:round;stroke-linejoin:round;stroke-miterlimit:10;stroke-dasharray:none;stroke-opacity:1"
             id="path4451" /></g><g
           id="g4453"
           transform="translate(346.7207,105.0894)"><path
             d="M 0,0 V -36.445"
             style="fill:none;stroke:#000000;stroke-width:15;stroke-linecap:round;stroke-linejoin:round;stroke-miterlimit:10;stroke-dasharray:none;stroke-opacity:1"
             id="path4455" /></g><g
           id="g4457"
           transform="translate(58.0811,169.1777)"><path
             d="M 0,0 V -27.672"
             style="fill:none;stroke:#000000;stroke-width:15;stroke-linecap:round;stroke-linejoin:round;stroke-miterlimit:10;stroke-dasharray:none;stroke-opacity:1"
             id="path4459" /></g><g
           id="g4461"
           transform="translate(58.0811,232.7949)"><path
             d="M 0,0 V -27.643"
             style="fill:none;stroke:#000000;stroke-width:15;stroke-linecap:round;stroke-linejoin:round;stroke-miterlimit:10;stroke-dasharray:none;stroke-opacity:1"
             id="path4463" /></g></g></g></g></svg>
