<?xml version="1.0" encoding="iso-8859-1"?>
<!-- Generator: Adobe Illustrator 19.0.0, SVG Export Plug-In . SVG Version: 6.00 Build 0)  -->
<svg version="1.1" id="Capa_1" xmlns="http://www.w3.org/2000/svg" xmlns:xlink="http://www.w3.org/1999/xlink" x="0px" y="0px"
	 viewBox="0 0 512 512" style="enable-background:new 0 0 512 512;" xml:space="preserve">
<rect x="25.999" y="7.5" style="fill:#F5E5C0;" width="356" height="497"/>
<rect x="351.999" y="7.5" style="fill:#D6C194;" width="30" height="497"/>
<rect x="25.999" y="7.5" style="fill:#36E3C0;" width="356" height="158"/>
<rect x="351.999" y="7.5" style="fill:#32B399;" width="30" height="158"/>
<rect x="55.999" y="37.5" style="fill:#F8D77E;" width="296" height="98"/>
<g>
	<rect x="73.159" y="255.6" style="fill:#FF5948;" width="132.67" height="132.67"/>
	<path style="fill:#FF5948;" d="M481.803,249.811l-15.797-15.797c-5.594-5.594-14.664-5.594-20.259,0l-64.119,64.119l19.092,19.092
		l12.967-12.967c3.774-3.774,9.894-3.774,13.668,0l0,0c5.594,5.594,14.664,5.594,20.259,0l34.189-34.189
		C487.398,264.475,487.398,255.405,481.803,249.811z"/>
</g>
<path style="fill:#C0E8F4;" d="M381.631,332.367L258.214,208.951l4.925-4.925c7.824-7.824,20.51-7.824,28.335,0l109.25,109.25
	L381.631,332.367z"/>
<path style="fill:#FF5948;" d="M481.803,380.689l-15.797,15.797c-5.594,5.594-14.664,5.594-20.259,0l-64.119-64.119l19.092-19.092
	l12.967,12.967c3.774,3.774,9.894,3.774,13.668,0l0,0c5.594-5.594,14.664-5.594,20.259,0l34.189,34.189
	C487.398,366.025,487.398,375.095,481.803,380.689z"/>
<path d="M158.063,292.765l-47.735,47.736c-2.929,2.93-2.929,7.678,0,10.607c1.464,1.464,3.384,2.196,5.303,2.196
	s3.839-0.732,5.303-2.196l47.735-47.736c2.929-2.93,2.929-7.678,0-10.607C165.741,289.837,160.992,289.837,158.063,292.765z"/>
<circle cx="119.629" cy="298.07" r="7.5"/>
<circle cx="159.369" cy="345.8" r="7.5"/>
<path d="M381.999,484.25c-4.142,0-7.5,3.357-7.5,7.5V497h-341V173h22.5c4.142,0,7.5-3.357,7.5-7.5s-3.358-7.5-7.5-7.5h-22.5V67
	c0-4.143-3.358-7.5-7.5-7.5s-7.5,3.357-7.5,7.5v437.5c0,4.143,3.358,7.5,7.5,7.5h356c4.142,0,7.5-3.357,7.5-7.5v-12.75
	C389.499,487.607,386.141,484.25,381.999,484.25z"/>
<path d="M359.499,135.5v-98c0-4.143-3.358-7.5-7.5-7.5h-296c-4.142,0-7.5,3.357-7.5,7.5v98c0,4.143,3.358,7.5,7.5,7.5h296
	C356.141,143,359.499,139.643,359.499,135.5z M344.499,128h-281V45h281V128z"/>
<path d="M186.79,119.981c4.142,0,7.5-3.357,7.5-7.5V95.25h16.966v17.231c0,4.143,3.358,7.5,7.5,7.5s7.5-3.357,7.5-7.5V63.019
	c0-4.143-3.358-7.5-7.5-7.5H186.79c-4.142,0-7.5,3.357-7.5,7.5v49.463C179.29,116.624,182.648,119.981,186.79,119.981z
	 M211.256,70.519v9.731H194.29v-9.731H211.256z"/>
<path d="M134.85,70.519h8.483v41.963c0,4.143,3.358,7.5,7.5,7.5s7.5-3.357,7.5-7.5V70.519h8.482c4.142,0,7.5-3.357,7.5-7.5
	s-3.358-7.5-7.5-7.5H134.85c-4.142,0-7.5,3.357-7.5,7.5S130.707,70.519,134.85,70.519z"/>
<path d="M237.112,118.78c1.258,0.813,2.669,1.202,4.064,1.202c2.46,0,4.871-1.21,6.306-3.431l9.683-14.984l9.683,14.984
	c1.435,2.221,3.846,3.431,6.306,3.431c1.395,0,2.806-0.389,4.064-1.202c3.479-2.248,4.477-6.891,2.229-10.369L266.095,87.75
	l13.352-20.661c2.248-3.479,1.25-8.121-2.229-10.369c-3.477-2.248-8.121-1.251-10.37,2.229l-9.683,14.984l-9.683-14.984
	c-2.248-3.479-6.891-4.477-10.37-2.229s-4.477,6.891-2.229,10.369l13.352,20.661l-13.352,20.661
	C232.636,111.89,233.633,116.532,237.112,118.78z"/>
<path d="M205.834,248.101H73.164c-4.142,0-7.5,3.357-7.5,7.5v58.836H47.412c-4.142,0-7.5,3.357-7.5,7.5s3.358,7.5,7.5,7.5h18.252
	v58.836c0,4.143,3.358,7.5,7.5,7.5h132.671c4.142,0,7.5-3.357,7.5-7.5v-58.836h18.252c4.142,0,7.5-3.357,7.5-7.5s-3.358-7.5-7.5-7.5
	h-18.252v-58.836C213.334,251.458,209.977,248.101,205.834,248.101z M198.334,380.772H80.664V263.101h117.671L198.334,380.772
	L198.334,380.772z"/>
<path d="M435.101,288.052c1.919,0,3.839-0.732,5.303-2.196L462.56,263.7c2.929-2.93,2.929-7.678,0-10.607
	c-2.929-2.928-7.678-2.928-10.606,0l-22.156,22.156c-2.929,2.93-2.929,7.678,0,10.607
	C431.262,287.319,433.181,288.052,435.101,288.052z"/>
<path d="M344.77,329.437c4.142,0,7.5-3.357,7.5-7.5s-3.358-7.5-7.5-7.5h-25.751c-4.142,0-7.5,3.357-7.5,7.5s3.358,7.5,7.5,7.5
	H344.77z"/>
<path d="M291.513,329.437c4.142,0,7.5-3.357,7.5-7.5s-3.358-7.5-7.5-7.5h-25.752c-4.142,0-7.5,3.357-7.5,7.5s3.358,7.5,7.5,7.5
	H291.513z"/>
<path d="M65.664,426c0,4.143,3.358,7.5,7.5,7.5h207.245c4.142,0,7.5-3.357,7.5-7.5s-3.358-7.5-7.5-7.5H73.164
	C69.021,418.5,65.664,421.857,65.664,426z"/>
<path d="M280.409,451.229H73.164c-4.142,0-7.5,3.357-7.5,7.5s3.358,7.5,7.5,7.5h207.245c4.142,0,7.5-3.357,7.5-7.5
	S284.551,451.229,280.409,451.229z"/>
<path d="M452.918,320.939c-2.809-2.809-6.255-4.733-10.006-5.69c3.753-0.956,7.202-2.879,10.011-5.687l34.174-34.184
	c4.128-4.121,6.402-9.603,6.402-15.435c0-5.83-2.272-11.313-6.395-15.437L471.309,228.7c-8.515-8.502-22.36-8.496-30.862,0.004
	l-50.947,50.949V7.5c0-4.143-3.358-7.5-7.5-7.5h-356c-4.142,0-7.5,3.357-7.5,7.5v29.999c0,4.143,3.358,7.5,7.5,7.5
	s7.5-3.357,7.5-7.5V15h341v143H87.749c-4.142,0-7.5,3.357-7.5,7.5s3.358,7.5,7.5,7.5h286.75v103.445l-77.722-77.722
	c-5.201-5.201-12.116-8.066-19.471-8.066s-14.27,2.865-19.47,8.065l-4.924,4.924c-1.406,1.406-2.197,3.314-2.197,5.304
	s0.79,3.896,2.197,5.304l121.587,121.588v124.491c0,4.143,3.358,7.5,7.5,7.5s7.5-3.357,7.5-7.5V350.844l50.945,50.944
	c4.123,4.123,9.603,6.394,15.433,6.394c5.83,0,11.311-2.271,15.433-6.393l15.797-15.797c4.122-4.122,6.393-9.603,6.393-15.433
	s-2.271-11.311-6.393-15.433L452.918,320.939z M451.052,239.313c2.659-2.66,6.992-2.658,9.651-0.002l15.792,15.801
	c1.292,1.293,2.004,3.008,2.004,4.832c0,1.82-0.71,3.531-2.004,4.823l-34.178,34.188c-1.286,1.286-3,1.994-4.827,1.994
	s-3.542-0.708-4.828-1.994c-3.245-3.244-7.556-5.031-12.141-5.031c-0.003,0-0.008,0-0.011,0c-4.584,0.004-8.893,1.793-12.124,5.032
	l-5.687,5.688l-8.488-8.488L451.052,239.313z M432.062,315.248c-3.752,0.957-7.2,2.881-10.009,5.69
	c-0.844,0.846-2.217,0.845-3.062,0.001l-5.687-5.688l5.695-5.695c0.52-0.521,1.114-0.631,1.521-0.632l0,0
	c0.411,0,1.009,0.111,1.537,0.639C424.863,312.37,428.31,314.292,432.062,315.248z M277.306,205.657
	c3.349,0,6.496,1.305,8.864,3.673l90.446,90.445c0.055,0.057,0.111,0.112,0.167,0.167l1.431,1.431
	c0.028,0.029,0.052,0.061,0.081,0.09s0.061,0.053,0.09,0.081l11.729,11.729l-8.485,8.485l-112.8-112.801
	C271.147,206.825,274.137,205.657,277.306,205.657z M476.5,375.385l-15.797,15.798c-1.289,1.289-3.002,1.999-4.826,1.999
	c-1.823,0-3.536-0.71-4.826-2l-58.814-58.813l7.682-7.683c0.261,0.028,0.525,0.044,0.79,0.045c0.003,0,0.006,0,0.01,0
	c0.27,0,0.538-0.018,0.804-0.046l6.861,6.861c3.242,3.241,7.552,5.027,12.137,5.027s8.896-1.786,12.138-5.028
	c1.289-1.289,3.003-1.999,4.826-1.999s3.537,0.71,4.826,2l34.189,34.188c1.289,1.289,1.999,3.002,1.999,4.825
	S477.789,374.096,476.5,375.385z"/>
<path d="M440.878,344.015c-2.929-2.928-7.678-2.929-10.606,0.001c-2.929,2.929-2.929,7.678,0,10.606l22.156,22.155
	c1.464,1.464,3.384,2.196,5.303,2.196s3.839-0.732,5.303-2.197c2.929-2.929,2.929-7.678,0-10.606L440.878,344.015z"/>
<g>
</g>
<g>
</g>
<g>
</g>
<g>
</g>
<g>
</g>
<g>
</g>
<g>
</g>
<g>
</g>
<g>
</g>
<g>
</g>
<g>
</g>
<g>
</g>
<g>
</g>
<g>
</g>
<g>
</g>
</svg>
