<svg xmlns="http://www.w3.org/2000/svg" width="65" height="104" fill="none"><path fill="#1A1A1A" d="M49.656 30.835c2.986.237 5.736.474 8.485.711.616.047 1.232.142 1.753.38 1.043.426 1.565 1.279 1.66 2.464.094 1.564-.19 3.033-.76 4.455a58.508 58.508 0 0 1-2.18 4.977 139.283 139.283 0 0 1-6.398 11.66c-4.598 7.394-9.148 14.741-13.604 22.23-2.133 3.555-3.886 7.3-5.877 10.902-1.99 3.65-4.076 7.299-6.067 10.949-1.09 2.038-2.939 3.033-4.977 3.649-2.37.711-4.834-.711-5.593-3.081-.569-1.8-.616-3.65.095-5.356 1.28-3.08 2.75-6.067 4.218-9.053.474-.948 1.233-1.706 2.18-2.275 1.423-.853 2.181-.569 2.56.996.048.142.048.284.143.663.331-.474.568-.758.758-1.09a165.888 165.888 0 0 0 8.674-15.879c4.076-8.531 8.626-16.779 13.177-25.073.663-1.233 1.469-2.37 2.18-3.602.19-.332.38-.617.616-1.043-1.659-.095-3.176-.19-4.645-.285-.427-.047-.664.19-.9.57l-1.707 2.7c-1.185 1.992-2.939 2.892-5.261 2.702-.664-.047-1.375-.047-2.038-.236-1.801-.427-2.702-2.039-2.228-3.84.142-.521.38-.995.616-1.47 4.503-8.057 8.959-16.067 13.509-24.078 1.327-2.322 2.844-4.55 4.266-6.872.19-.332.379-.616.616-1.043-.664-.047-1.138-.047-1.66-.142-1.184-.19-1.8-.853-1.943-1.896-.094-.806.19-1.327.949-1.66.473-.189.805-.52 1.184-.805.427-.332 1.043-.663 1.612-.663 2.275-.143 4.455-.237 6.683-.237.806 0 1.66.142 2.465.331 1.659.38 2.417 1.612 1.943 3.223a8.3 8.3 0 0 1-1.137 2.465c-1.849 2.56-3.46 5.309-4.882 8.2A197.727 197.727 0 0 1 50.32 29.65c-.19.332-.38.664-.664 1.185Z"/><path fill="#F90" d="M14.534 50.648c-1.422.095-2.749.19-4.123.237-2.133.142-4.314.284-6.447.38-.474.047-.9.047-1.374 0-1.849-.19-2.892-1.66-2.512-3.46.047-.19.094-.38.19-.522C2.4 41.69 3.916 35.955 5.337 30.172c1.612-6.399 3.271-12.798 4.93-19.15.332-1.231.711-2.464 1.043-3.696.474-1.66 1.422-2.75 3.223-2.939 1.896-.19 3.745-.521 5.64-.663 8.532-.522 17.064-1.47 25.548-2.465 2.133-.237 4.313-.427 6.447-.569.758-.047 1.516 0 2.227.19 1.801.426 2.56 2.133 1.849 3.792-.237.52-.569.995-.9 1.469-.854 1.327-1.707 2.607-2.513 3.934-2.18 3.697-4.313 7.394-6.54 11.044-2.229 3.65-4.504 7.3-6.779 10.949-.663 1.043-1.327 2.038-1.99 3.033-.19.285-.38.617-.664 1.09h1.043c3.934.048 7.868.048 11.802.095.284 0 .616.048.9.095 1.802.38 2.702 2.038 2.038 3.745-.236.616-.663 1.184-1.09 1.706-1.943 2.56-3.934 5.072-5.83 7.678-.9 1.233-1.706 2.607-2.417 3.982-3.84 7.3-7.631 14.551-11.376 21.898-3.886 7.536-7.678 15.168-11.517 22.704-.285.569-.617 1.137-1.09 1.611-1.138 1.185-2.655 1.091-3.84 0-.853-.805-1.327-1.753-1.374-2.89-.143-2.134-.332-4.314-.285-6.495.142-7.773.427-15.546.569-23.32.095-5.26.095-10.522.142-15.783.095-.142.047-.332 0-.569Z"/></svg>