<svg xmlns="http://www.w3.org/2000/svg" xmlns:xlink="http://www.w3.org/1999/xlink" viewBox="0 0 413.46 230.08"><defs><style>.cls-1{fill:#fff;}.cls-2{fill:#f99f37;}.cls-3{fill:#f5832a;}.cls-4{fill:#faa63c;}.cls-5{fill:#fbac3a;}.cls-6{fill:#f6882c;}.cls-7{fill:#fbaf3b;}.cls-8{fill:#fcb339;}.cls-9{fill:#fdb83b;}.cls-10{fill:#fcbe3e;}.cls-11{fill:url(#linear-gradient);}.cls-12{fill:#f47429;}</style><linearGradient id="linear-gradient" x1="396.59" y1="180.05" x2="413.46" y2="180.05" gradientUnits="userSpaceOnUse"><stop offset="0" stop-color="#fcb63d"/><stop offset="1" stop-color="#f26425"/></linearGradient></defs><g id="Layer_2" data-name="Layer 2"><g id="Layer_2-2" data-name="Layer 2"><path class="cls-1" d="M10.16,161.26a19.83,19.83,0,0,1-7.44-8.37,28.93,28.93,0,0,1-2.72-13A52.5,52.5,0,0,1,5.53,116,43.29,43.29,0,0,1,21.85,98.32q10.78-6.67,25.92-6.67a64.51,64.51,0,0,1,8.37.59A45.49,45.49,0,0,1,64.26,94a3.14,3.14,0,0,1,2.38,3.4A6.31,6.31,0,0,1,65,101.59a4.92,4.92,0,0,1-3.86,2,4.21,4.21,0,0,1-1-.09c-3-.68-5.47-1.17-7.57-1.49a45.41,45.41,0,0,0-6.63-.46q-10.8,0-18.36,5.22a32,32,0,0,0-11.3,13.82,45.76,45.76,0,0,0-3.74,18.53q0,7.21,2.84,11.17a8.77,8.77,0,0,0,7.44,4,12,12,0,0,0,9.1-4.25q3.9-4.26,7.14-13.77a205.45,205.45,0,0,0,6.37-25.84,4.5,4.5,0,0,1,2-3.23,8.36,8.36,0,0,1,4.08-.85c4,0,6,1.3,6,3.91a7.33,7.33,0,0,1-.26,1.7q-2.2,8.24-4,18.23a91.52,91.52,0,0,0-1.82,15.17c0,3.06.45,5.29,1.36,6.67A4.62,4.62,0,0,0,57,154a8.6,8.6,0,0,0,5.19-1.83,41.12,41.12,0,0,0,6.2-6.25,3,3,0,0,1,2.3-1.19,2,2,0,0,1,1.74,1A5.34,5.34,0,0,1,73,148.6a8,8,0,0,1-1.62,5.27,38.92,38.92,0,0,1-8.16,7.65,17.4,17.4,0,0,1-9.77,2.63,13.47,13.47,0,0,1-9.61-3.44q-3.66-3.45-4.59-9.73Q33,164.15,20.74,164.15A19.8,19.8,0,0,1,10.16,161.26Z"/><path class="cls-1" d="M129,143.5q0,6.8-10.88,6.8c-.28,0-1.87-.09-4.76-.26a97.82,97.82,0,0,1,1.49,10.24q.56,5.75.55,11.44,0,9.18-3.1,14t-8,4.85q-6.12,0-8.71-8.67t-2.6-26.18q0-4.52.26-9.1a23.69,23.69,0,0,1-2.47.09c-1.53,0-2.77,0-3.74.08q.85,6.3,1.32,12.07c.31,3.86.47,8.13.47,12.84q0,9.18-3.1,14t-8,4.85q-6.12,0-8.71-8.67t-2.6-26.18a173.43,173.43,0,0,1,3.28-33.2Q73.1,105.76,79,94.79t13.26-11a6.88,6.88,0,0,1,6,3.18q2.16,3.19,2.16,9.14,0,9.27-5,20.61T77.86,140.61a142.78,142.78,0,0,0-.77,14.53q0,8.76.6,18t2,9.22c.84,0,1.52-.71,2-2.12a21.46,21.46,0,0,0,.77-6.72q0-8.33-.64-14.75a92.41,92.41,0,0,0-1.49-10.32,7.15,7.15,0,0,1-.17-1.79,7.43,7.43,0,0,1,2.94-6,12.3,12.3,0,0,1,7.77-2.47h3.23a155.12,155.12,0,0,1,5.32-26.56q3.69-12.45,9-20.1t11.43-7.65a7,7,0,0,1,6.25,3.57q2.25,3.57,2.25,9.6a58.09,58.09,0,0,1-2.81,16.75,64.25,64.25,0,0,1-8.28,17.38,37.09,37.09,0,0,1-13.05,12.2,112.63,112.63,0,0,0-.59,11.81q0,8.76.59,18t2,9.22c.84,0,1.52-.71,2-2.12a21.84,21.84,0,0,0,.76-6.72,113.84,113.84,0,0,0-.68-12.66c-.45-4-.94-7.31-1.45-9.86a8.32,8.32,0,0,1-.17-1.87,8.13,8.13,0,0,1,2.38-5.91,7.43,7.43,0,0,1,5.45-2.42c1.92,0,3.69-.07,5.31-.22s2.65-.24,3.1-.29c1.93-.23,3.17-.34,3.74-.34C128.24,139.93,129,141.12,129,143.5ZM86.83,97.43A99.59,99.59,0,0,0,82.7,111.2q-2,8.58-3.48,18.27A54.58,54.58,0,0,0,89,112.85a47.94,47.94,0,0,0,3.27-16.27,8,8,0,0,0-.51-3.23c-.33-.74-.76-1.11-1.27-1.11Q88.91,92.24,86.83,97.43Zm27.11.76a114.71,114.71,0,0,0-4.76,15.56q-2.34,9.6-3.87,19.89a31.4,31.4,0,0,0,8.21-10.2,56.77,56.77,0,0,0,5-13.35,54.89,54.89,0,0,0,1.66-12.66q0-5.19-2.13-5.19C116.93,92.24,115.56,94.23,113.94,98.19Z"/><path class="cls-1" d="M167.62,138.74a5.81,5.81,0,0,1,.59,2.8q0,4.08-2.46,4.85a38.7,38.7,0,0,1-11.22,2,21.24,21.24,0,0,1-6.37,11.43,15.72,15.72,0,0,1-10.8,4.29,15.1,15.1,0,0,1-8.71-2.46,15.64,15.64,0,0,1-5.48-6.55,20.89,20.89,0,0,1-1.88-8.84,26.06,26.06,0,0,1,2.47-11.52,19.35,19.35,0,0,1,6.8-7.9,17.11,17.11,0,0,1,9.61-2.85,13.26,13.26,0,0,1,10.41,4.46,19.15,19.15,0,0,1,4.63,11,51,51,0,0,0,9.52-1.7,5.15,5.15,0,0,1,1.19-.17A1.85,1.85,0,0,1,167.62,138.74Zm-24.86,14.19a12.33,12.33,0,0,0,2.68-6.37,11.67,11.67,0,0,1-4-4.68,13.73,13.73,0,0,1-1.4-6.12,14.8,14.8,0,0,1,.25-2.72h-.42a6.68,6.68,0,0,0-5.66,3.27c-1.5,2.19-2.25,5.26-2.25,9.23q0,4.67,1.83,7.14a5.28,5.28,0,0,0,4.29,2.46A6.15,6.15,0,0,0,142.76,152.93Z"/><path class="cls-1" d="M162.39,160.75q-1.32-3.39-1.32-10.88a69.12,69.12,0,0,1,3.15-21,6.37,6.37,0,0,1,2.51-3.62,8.87,8.87,0,0,1,4.88-1.14,4.81,4.81,0,0,1,2.38.42,1.75,1.75,0,0,1,.68,1.62,32.43,32.43,0,0,1-1.27,6.12c-.57,2.26-1,4.25-1.36,5.95a59,59,0,0,0-.85,6.29,48,48,0,0,1,6.29-11.9,24.72,24.72,0,0,1,6.84-6.55,12.46,12.46,0,0,1,6.16-1.95q5.53,0,5.53,5.52a43.24,43.24,0,0,1-.77,5.36,31.66,31.66,0,0,0-.68,4.25q0,3,2.13,3c1.58,0,3.62-1.24,6.12-3.74a3.26,3.26,0,0,1,2.29-1.1,2,2,0,0,1,1.75,1,4.77,4.77,0,0,1,.63,2.6,6.84,6.84,0,0,1-1.7,4.93,23,23,0,0,1-5.56,4.2,13.82,13.82,0,0,1-6.76,1.75q-4.52,0-6.84-2.3a8.29,8.29,0,0,1-2.34-6.2,13,13,0,0,1,.25-2.55c.12-1.14.17-1.9.17-2.3,0-.9-.31-1.36-.93-1.36q-1.28,0-3.36,2.85a40.11,40.11,0,0,0-4.12,7.52,61.4,61.4,0,0,0-3.32,9.86c-.62,2.67-1.34,4.46-2.16,5.4a4.93,4.93,0,0,1-3.87,1.4C164.78,164.15,163.27,163,162.39,160.75Z"/><path class="cls-1" d="M249.6,145.79a5.34,5.34,0,0,1,.64,2.81,7.82,7.82,0,0,1-1.62,5.27,40.84,40.84,0,0,1-7.65,7.26,14,14,0,0,1-8.24,3q-6.47,0-9.86-7.56a24.52,24.52,0,0,1-6.25,6,12.37,12.37,0,0,1-6.25,1.53,10.82,10.82,0,0,1-8.54-3.87,14.78,14.78,0,0,1-3.36-10.07,28.08,28.08,0,0,1,2.89-12.62,25.82,25.82,0,0,1,7.95-9.52,23.1,23.1,0,0,1,11.35-4.38q1.6-16.48,6.16-28.18t11.94-11.68a7.26,7.26,0,0,1,6.08,3.31q2.41,3.31,2.42,10,0,9.52-4.67,22.27a165,165,0,0,1-12.5,26.18c.23,3.29.72,5.64,1.49,7.06a3.37,3.37,0,0,0,2.93,2.12,7.28,7.28,0,0,0,4.68-2,61.79,61.79,0,0,0,6.37-6.8,3,3,0,0,1,2.3-1.19A2,2,0,0,1,249.6,145.79Zm-33,8.46a25.48,25.48,0,0,0,4.08-4.89,56.44,56.44,0,0,1-.85-10.28c0-1.36.05-3.57.17-6.63a14.22,14.22,0,0,0-7.78,6.24,19.26,19.26,0,0,0-3.1,10.67c0,4.14,1.41,6.21,4.25,6.21A5.13,5.13,0,0,0,216.58,154.25Zm18-56.36a103.81,103.81,0,0,0-2.76,15q-1.16,9.25-1.66,19.38,9.51-20.75,9.52-33.32a18.08,18.08,0,0,0-.55-5c-.37-1.19-.81-1.78-1.32-1.78Q236.21,92.16,234.6,97.89Z"/><path class="cls-1" d="M244.54,160.33q-3.15-3.83-3.14-10a27.57,27.57,0,0,1,3.14-12.88,27,27,0,0,1,8.37-9.78A18.94,18.94,0,0,1,264,124a3.34,3.34,0,0,1,2.51.72,6.28,6.28,0,0,1,1.06,2.59,20.48,20.48,0,0,1,3.74-.34q4.15,0,4.16,3a63.49,63.49,0,0,1-1.27,8.5q-2,9.76-2,13.6a3.11,3.11,0,0,0,.64,2,2,2,0,0,0,1.66.76c1.07,0,2.38-.69,3.91-2.08a71.76,71.76,0,0,0,6.2-6.76,3,3,0,0,1,2.3-1.19,2,2,0,0,1,1.74,1,5.34,5.34,0,0,1,.64,2.81,7.82,7.82,0,0,1-1.62,5.27,43.16,43.16,0,0,1-7.39,7.31,12.63,12.63,0,0,1-7.57,3,8,8,0,0,1-5.14-1.91,11.73,11.73,0,0,1-3.53-5.23q-4.41,7.14-11.13,7.14A10.34,10.34,0,0,1,244.54,160.33Zm15-7a14.42,14.42,0,0,0,2.46-5.87l3.15-15.64a10.31,10.31,0,0,0-6.59,2.68,18.08,18.08,0,0,0-4.8,6.84,23.07,23.07,0,0,0-1.79,9,6.06,6.06,0,0,0,1.06,3.91,3.63,3.63,0,0,0,2.94,1.28C257.26,155.57,258.45,154.83,259.59,153.36Z"/><path class="cls-1" d="M329.37,138.74a5.81,5.81,0,0,1,.6,2.8,7.17,7.17,0,0,1-.6,3.27,3.16,3.16,0,0,1-1.87,1.58,38.7,38.7,0,0,1-11.22,2,22,22,0,0,1-6.42,11.39,15,15,0,0,1-10.41,4.33q-8.58,0-12.49-6.54t-3.91-19a115.38,115.38,0,0,1,2.72-23.84,74.46,74.46,0,0,1,7.94-21.93q5.24-9.06,12.46-9a7.39,7.39,0,0,1,6.29,3.35,14.81,14.81,0,0,1,2.38,8.72,38.44,38.44,0,0,1-2.64,13.85,54.37,54.37,0,0,1-8.75,14.45,12.84,12.84,0,0,1,9.26,4.72A19.36,19.36,0,0,1,317,139.5a51,51,0,0,0,9.52-1.7,3.88,3.88,0,0,1,1.19-.17A1.85,1.85,0,0,1,329.37,138.74Zm-24.9,14.19a12.11,12.11,0,0,0,2.72-6.37,11.67,11.67,0,0,1-4-4.68,13.73,13.73,0,0,1-1.4-6.12,20.44,20.44,0,0,1,.34-3.23h-.26q-3.48,0-5.82,3.44c-1.56,2.3-2.34,5.37-2.34,9.23q0,4.85,1.83,7.39a5.24,5.24,0,0,0,4.29,2.55A6.19,6.19,0,0,0,304.47,152.93Zm-4-55.63A81.27,81.27,0,0,0,296.82,111,169.73,169.73,0,0,0,294.27,130q5.61-10.27,9-18.15t3.36-14a10.56,10.56,0,0,0-.64-4.16c-.42-1-1-1.45-1.74-1.45Q302.52,92.24,300.51,97.3Z"/><path class="cls-1" d="M356.61,145.79a5.24,5.24,0,0,1,.64,2.81,7.87,7.87,0,0,1-1.61,5.27,36.63,36.63,0,0,1-7.95,7.39,17,17,0,0,1-9.73,2.89q-7.48,0-11.1-6.8t-3.61-17.59a120.44,120.44,0,0,1,2.68-23.63,80.11,80.11,0,0,1,7.9-22.78q5.24-9.52,12.46-9.52a7.2,7.2,0,0,1,6.41,3.78Q355,91.39,355,98.45q0,10.11-5.61,23.46a130,130,0,0,1-15.21,26.43,9.73,9.73,0,0,0,1.95,5,4.59,4.59,0,0,0,3.57,1.49,9.81,9.81,0,0,0,6.12-2,46.32,46.32,0,0,0,6.72-6.84,3,3,0,0,1,2.29-1.19A2,2,0,0,1,356.61,145.79ZM340,99.3a115.39,115.39,0,0,0-4.34,17.51,125.9,125.9,0,0,0-2,20.06,109.8,109.8,0,0,0,9.61-19.94A54.57,54.57,0,0,0,346.8,98.7c0-4.3-.8-6.46-2.38-6.46Q342.46,92.24,340,99.3Z"/><path class="cls-1" d="M382.54,148.34a5.34,5.34,0,0,1,.63,2.81,9.45,9.45,0,0,1-1.44,5.27,16.61,16.61,0,0,1-6.25,5.69,19.51,19.51,0,0,1-9.22,2q-8.16,0-12.67-4.89t-4.5-13.21a24.7,24.7,0,0,1,2.46-10.93,20.29,20.29,0,0,1,6.85-8,17.21,17.21,0,0,1,9.9-3,10.73,10.73,0,0,1,7.9,2.93,10.62,10.62,0,0,1,3,8A13.73,13.73,0,0,1,375,145.07q-4.2,4.2-14.32,6.67,2,3.91,6.88,3.91a9.64,9.64,0,0,0,5.74-1.61,27.81,27.81,0,0,0,5.23-5.44,2.92,2.92,0,0,1,2.29-1.28A2,2,0,0,1,382.54,148.34Zm-21-12.24a17.11,17.11,0,0,0-2.17,8.84v.17a19.23,19.23,0,0,0,7.91-3.57,7,7,0,0,0,2.89-5.52,3.75,3.75,0,0,0-.89-2.6,3.14,3.14,0,0,0-2.43-1Q363.72,132.45,361.54,136.1Z"/><polygon class="cls-2" points="81.38 7.2 76.26 23.71 62.51 24.83 67.44 9.33 81.38 7.2"/><polygon class="cls-2" points="74.58 29.13 69.07 46.93 55.48 46.93 60.84 30.08 74.58 29.13"/><polygon class="cls-3" points="114.43 53.82 108.58 76.42 88.41 74.29 94.25 53.32 114.43 53.82"/><polygon class="cls-3" points="121.65 25.89 116.21 46.93 96.04 46.93 101.51 27.28 121.65 25.89"/><polygon class="cls-3" points="128.35 0 123.2 19.91 103.11 21.54 108.26 3.08 128.35 0"/><polygon class="cls-4" points="62.61 10.07 57.72 25.22 46.15 26.16 50.98 11.85 62.61 10.07"/><polygon class="cls-5" points="40.64 31.47 35.23 46.93 24.6 46.93 30.06 32.2 40.64 31.47"/><polygon class="cls-5" points="33.52 51.81 27.89 67.88 17.24 66.75 22.88 51.55 33.52 51.81"/><polygon class="cls-4" points="56.05 30.41 50.72 46.93 39.15 46.93 44.45 31.21 56.05 30.41"/><polygon class="cls-4" points="49.02 52.2 43.44 69.53 31.94 68.31 37.47 51.91 49.02 52.2"/><polygon class="cls-2" points="67.3 52.65 61.48 71.44 48.13 70.02 53.77 52.32 67.3 52.65"/><polygon class="cls-6" points="102.73 3.93 97.59 21.98 81.21 23.31 86.54 6.41 102.73 3.93"/><polygon class="cls-6" points="95.98 27.66 90.5 46.93 73.77 46.93 79.48 28.8 95.98 27.66"/><polygon class="cls-6" points="88.73 53.18 82.89 73.7 65.9 71.9 71.93 52.77 88.73 53.18"/><polygon class="cls-7" points="19.59 51.47 14.34 66.45 4.97 65.46 10.48 51.24 19.59 51.47"/><polygon class="cls-8" points="34.13 13.42 43.82 12.19 38.63 26.6 28.18 27.37 34.13 13.42"/><polygon class="cls-9" points="15 25.28 23.77 24.74 18.59 39.15 9.32 39.2 15 25.28"/><polygon class="cls-10" points="5.2 7.14 13.97 6.59 9.32 20.45 0.05 20.5 5.2 7.14"/><path class="cls-1" d="M391.23,146.78a3,3,0,0,0-3,3v23a3,3,0,0,0-1.29-.3,3,3,0,0,0-3,3v3.16H121.2a1.5,1.5,0,0,0,0,3H383.94v3.16a3,3,0,0,0,3,3,3,3,0,0,0,1.29-.3v23a3,3,0,0,0,6,0V149.78A3,3,0,0,0,391.23,146.78Z"/><polygon class="cls-11" points="396.59 150.43 396.59 208.61 413.46 213.75 413.46 210.53 410.25 208.61 413.46 208.02 413.46 194.73 397.87 194.14 413.46 193.12 413.46 179.52 409.71 178.77 413.46 177.37 413.46 171.32 406.55 170.57 413.46 169.28 413.46 161.36 403.76 160.98 413.46 159.53 413.46 150.43 409.71 150.05 413.46 148.71 413.46 146.36 396.59 150.43"/><path class="cls-12" d="M21.7,209.4l-5.18,1.73a4.24,4.24,0,0,0-4.42-3.08c-2.41,0-3.61.78-3.61,2.34A2.1,2.1,0,0,0,9.16,212a6.82,6.82,0,0,0,3.05,1.13A29.62,29.62,0,0,1,18,214.72a7.38,7.38,0,0,1,3.11,2.63,6.94,6.94,0,0,1,1.27,4.07,8.13,8.13,0,0,1-2.71,6.09c-1.81,1.72-4.49,2.57-8,2.57a12.16,12.16,0,0,1-6.8-1.82,8.57,8.57,0,0,1-3.7-5.4l5.63-1.27c.64,2.42,2.4,3.64,5.29,3.64a5,5,0,0,0,3.11-.81,2.4,2.4,0,0,0,1-1.94,2,2,0,0,0-.93-1.77,11.24,11.24,0,0,0-3.6-1.18c-3.31-.68-5.66-1.62-7.07-2.81a6.42,6.42,0,0,1-2.11-5.21A7.72,7.72,0,0,1,5,205.67a9.54,9.54,0,0,1,6.84-2.38Q19.52,203.29,21.7,209.4Z"/><path class="cls-12" d="M34.45,230.08a9.47,9.47,0,0,1-8.13-3.94,15.8,15.8,0,0,1-2.87-9.54,15.18,15.18,0,0,1,2.91-9.5,9.83,9.83,0,0,1,8.3-3.81,9.28,9.28,0,0,1,8.21,4.06,16.23,16.23,0,0,1,2.77,9.31,15.69,15.69,0,0,1-2.86,9.54Q39.93,230.08,34.45,230.08Zm.17-21.82q-4.78,0-4.79,8.42t4.79,8.43q4.64,0,4.64-8.41T34.62,208.26Z"/><path class="cls-12" d="M55.37,224.54h7.34v5.14H49.2v-26h6.17Z"/><path class="cls-12" d="M79.17,203.69l8.14,26H80.76l-1.6-5.35h-8.4l-1.63,5.35H63.79l8.33-26Zm-7,15.84h5.5L75,210.41Z"/><path class="cls-12" d="M95.76,219.38v10.3H89.63v-26h11.43a14.4,14.4,0,0,1,5.07.73,6.5,6.5,0,0,1,3.17,2.69,7.9,7.9,0,0,1,1.26,4.36,6.92,6.92,0,0,1-4.51,6.72l4.8,11.49h-6.73l-4-10.3Zm0-11.06v6.62H99.5a9.88,9.88,0,0,0,2.65-.25,3,3,0,0,0,1.48-1.15,3.34,3.34,0,0,0,.65-2,3.16,3.16,0,0,0-.65-2,2.63,2.63,0,0,0-1.41-1,12.91,12.91,0,0,0-2.86-.2Z"/><path class="cls-12" d="M142.49,213.36l-6.37.4q-.13-5.5-4.3-5.5-4.77,0-4.77,8.47,0,4.91,1.3,6.64a4.25,4.25,0,0,0,3.62,1.74q3.78,0,4.62-4.91l5.9.36a10.43,10.43,0,0,1-3.47,7.09,11.64,11.64,0,0,1-15.5-1.13q-3.22-3.56-3.23-9.84a14.56,14.56,0,0,1,3.12-9.64,10.53,10.53,0,0,1,8.54-3.75Q141.31,203.29,142.49,213.36Z"/><path class="cls-12" d="M150,224.54h9.34v5.14H143.82v-26H150Z"/><path class="cls-12" d="M175,208.64h-7.38V214h6.73v4.9h-6.73v5.67H175v5.14H161.43v-26H175Z"/><path class="cls-12" d="M191.23,203.69l8.14,26h-6.55l-1.6-5.35h-8.4l-1.63,5.35h-5.34l8.33-26Zm-6.95,15.84h5.51l-2.73-9.12Z"/><path class="cls-12" d="M222.84,203.69v26h-5.2l-10.17-17.56c0,.45,0,.74,0,.88a10.25,10.25,0,0,1,.07,1.12v15.56h-4.74v-26h6.57L218.25,219c-.08-.76-.12-1.34-.12-1.73v-13.6Z"/><path class="cls-12" d="M261.7,203.69v26h-5.2l-10.17-17.56c0,.45,0,.74,0,.88a10.25,10.25,0,0,1,.07,1.12v15.56H241.7v-26h6.57L257.11,219c-.08-.76-.12-1.34-.12-1.73v-13.6Z"/><path class="cls-12" d="M287.84,215.78v13.9s-7.87.4-10.74.4a9.48,9.48,0,0,1-7.92-3.63,15,15,0,0,1-2.83-9.41q0-6.21,3-10a11,11,0,0,1,15.21-1.33,10.54,10.54,0,0,1,3.26,6.49l-5.79.76q-.71-4.72-4.48-4.72a4,4,0,0,0-3.74,2.24,13.07,13.07,0,0,0-1.27,6.39,11.31,11.31,0,0,0,1.37,6.11,4.4,4.4,0,0,0,3.91,2.11c1.09,0,4.18-.14,4.18-.14s0-2.77,0-4.33h-4.9v-4.86Z"/><path class="cls-12" d="M304.93,220v9.65h-6.19v-26H309a14.6,14.6,0,0,1,5.25.73,7.8,7.8,0,0,1,3.25,2.62,7.46,7.46,0,0,1,1.42,4.63,9.63,9.63,0,0,1-.76,3.75,6.59,6.59,0,0,1-2.15,2.87,7.7,7.7,0,0,1-2.69,1.39,17.47,17.47,0,0,1-4.09.35Zm-.21-4.72h4a4.05,4.05,0,0,0,3.18-1.05,3.54,3.54,0,0,0,.91-2.4,3.26,3.26,0,0,0-1-2.52,4.46,4.46,0,0,0-3.09-.93h-3.94Z"/><path class="cls-12" d="M326.08,219.38v10.3H320v-26h11.43a14.44,14.44,0,0,1,5.07.73,6.5,6.5,0,0,1,3.17,2.69,7.9,7.9,0,0,1,1.26,4.36,6.92,6.92,0,0,1-4.51,6.72l4.8,11.49h-6.73l-4-10.3Zm0-11.06v6.62h3.74a9.93,9.93,0,0,0,2.65-.25,3,3,0,0,0,1.48-1.15,3.34,3.34,0,0,0,.65-2,3.16,3.16,0,0,0-.65-2,2.63,2.63,0,0,0-1.41-1,12.91,12.91,0,0,0-2.86-.2Z"/><path class="cls-12" d="M352.51,230.08a9.47,9.47,0,0,1-8.13-3.94,15.8,15.8,0,0,1-2.87-9.54,15.18,15.18,0,0,1,2.91-9.5,9.83,9.83,0,0,1,8.3-3.81,9.3,9.3,0,0,1,8.21,4.06,16.22,16.22,0,0,1,2.76,9.31,15.69,15.69,0,0,1-2.85,9.54Q358,230.08,352.51,230.08Zm.17-21.82q-4.8,0-4.79,8.42t4.79,8.43q4.63,0,4.63-8.41T352.68,208.26Z"/><path class="cls-12" d="M385.31,209.4l-5.18,1.73a4.25,4.25,0,0,0-4.43-3.08c-2.4,0-3.61.78-3.61,2.34a2.11,2.11,0,0,0,.68,1.58,6.77,6.77,0,0,0,3.05,1.13,29.62,29.62,0,0,1,5.82,1.62,7.44,7.44,0,0,1,3.11,2.63,7,7,0,0,1,1.26,4.07,8.1,8.1,0,0,1-2.71,6.09c-1.81,1.72-4.49,2.57-8,2.57a12.18,12.18,0,0,1-6.8-1.82,8.65,8.65,0,0,1-3.7-5.4l5.64-1.27c.63,2.42,2.39,3.64,5.28,3.64a5,5,0,0,0,3.12-.81,2.42,2.42,0,0,0,1-1.94,2,2,0,0,0-.93-1.77,11.26,11.26,0,0,0-3.59-1.18q-5-1-7.08-2.81a6.45,6.45,0,0,1-2.11-5.21,7.72,7.72,0,0,1,2.52-5.84,9.54,9.54,0,0,1,6.84-2.38Q383.12,203.29,385.31,209.4Z"/><polygon class="cls-12" points="236.75 208.14 236.75 203.69 235.43 203.69 229.36 203.69 228.02 203.69 228.02 208.14 229.36 208.14 229.36 225.23 228.02 225.23 228.02 229.68 229.36 229.68 235.43 229.68 236.75 229.68 236.75 225.23 235.43 225.23 235.43 208.14 236.75 208.14"/></g></g></svg>