<svg width="72" height="72" viewBox="0 0 72 72" fill="none" xmlns="http://www.w3.org/2000/svg">
<g clip-path="url(#clip0_3_1193)">
<path d="M35.9999 5.67002C33.0702 5.67002 30.6869 8.05334 30.6869 10.983C30.6869 13.9126 33.0702 16.2958 35.9999 16.2958C38.9295 16.2958 41.3128 13.9124 41.3128 10.983C41.313 8.05334 38.9295 5.67002 35.9999 5.67002ZM35.9999 14.1753C34.2395 14.1753 32.8072 12.7432 32.8072 10.9829C32.8072 9.2225 34.2394 7.79023 35.9999 7.79023C37.7604 7.79023 39.1925 9.22236 39.1925 10.9829C39.1925 12.7433 37.7604 14.1753 35.9999 14.1753ZM35.9999 9.32987e-09C35.7187 9.32987e-09 35.449 0.111697 35.2502 0.310518C35.0514 0.50934 34.9397 0.779 34.9397 1.06018V2.47768C34.9442 2.75587 35.0579 3.02113 35.2562 3.21625C35.4546 3.41138 35.7216 3.52073 35.9999 3.52073C36.2781 3.52073 36.5452 3.41138 36.7435 3.21625C36.9418 3.02113 37.0555 2.75587 37.06 2.47768V1.06018C37.0601 0.920947 37.0326 0.783077 36.9794 0.654442C36.9261 0.525808 36.848 0.408927 36.7496 0.310477C36.6511 0.212027 36.5342 0.133936 36.4056 0.0806635C36.277 0.0273912 36.1391 -1.84622e-05 35.9999 9.32987e-09ZM30.7355 4.21905L29.7332 3.21681C29.5333 3.02284 29.2652 2.91529 28.9867 2.91737C28.7082 2.91946 28.4417 3.03103 28.2448 3.22797C28.0479 3.42492 27.9364 3.69142 27.9344 3.96991C27.9323 4.24839 28.04 4.5165 28.234 4.7163L29.2362 5.71868C29.4432 5.92568 29.7146 6.02918 29.9859 6.02918C30.2571 6.02918 30.5285 5.92568 30.7357 5.71854C30.9345 5.51967 31.0462 5.24997 31.0462 4.96876C31.0461 4.68756 30.9344 4.41788 30.7355 4.21905ZM27.4948 9.92254H26.0773C25.9381 9.92254 25.8002 9.94996 25.6716 10.0032C25.543 10.0565 25.4261 10.1346 25.3277 10.2331C25.2292 10.3315 25.1511 10.4484 25.0978 10.577C25.0446 10.7056 25.0171 10.8435 25.0171 10.9827C25.0171 11.2639 25.1288 11.5336 25.3277 11.7324C25.5265 11.9312 25.7961 12.0429 26.0773 12.0429H27.4948C27.773 12.0384 28.0383 11.9247 28.2334 11.7263C28.4285 11.528 28.5379 11.2609 28.5379 10.9827C28.5379 10.7045 28.4285 10.4374 28.2334 10.2391C28.0383 10.0408 27.773 9.92707 27.4948 9.92254ZM30.7355 16.2473C30.5367 16.0485 30.267 15.9368 29.9857 15.9368C29.7045 15.9368 29.4348 16.0485 29.2359 16.2473L28.2337 17.2496C28.1343 17.3478 28.0554 17.4648 28.0013 17.5936C27.9473 17.7225 27.9193 17.8608 27.9189 18.0006C27.9186 18.1403 27.9458 18.2788 27.9991 18.4079C28.0524 18.5371 28.1307 18.6545 28.2296 18.7533C28.3284 18.8521 28.4458 18.9304 28.575 18.9837C28.7042 19.037 28.8426 19.0642 28.9824 19.0638C29.1221 19.0634 29.2604 19.0353 29.3893 18.9813C29.5181 18.9273 29.6351 18.8483 29.7333 18.7489L30.7355 17.7467C30.9343 17.5478 31.046 17.2782 31.046 16.997C31.046 16.7158 30.9343 16.4462 30.7355 16.2473ZM35.9999 18.4279C35.7187 18.4279 35.449 18.5396 35.2502 18.7384C35.0514 18.9372 34.9397 19.2069 34.9397 19.488V20.9055C34.9442 21.1837 35.0579 21.449 35.2562 21.6441C35.4546 21.8392 35.7216 21.9486 35.9999 21.9486C36.2781 21.9486 36.5452 21.8392 36.7435 21.6441C36.9418 21.449 37.0555 21.1837 37.06 20.9055V19.488C37.0601 19.3488 37.0326 19.2109 36.9794 19.0823C36.9261 18.9537 36.848 18.8368 36.7496 18.7383C36.6511 18.6399 36.5342 18.5618 36.4056 18.5085C36.277 18.4552 36.1391 18.4278 35.9999 18.4279ZM43.7662 17.2498L42.764 16.2476C42.5647 16.0506 42.2957 15.9404 42.0155 15.9412C41.7353 15.942 41.4668 16.0536 41.2687 16.2517C41.0706 16.4498 40.9589 16.7182 40.9581 16.9984C40.9572 17.2786 41.0673 17.5477 41.2643 17.7469L42.2666 18.7492C42.3649 18.8478 42.4818 18.9259 42.6105 18.9792C42.7392 19.0325 42.8771 19.0599 43.0164 19.0597C43.2261 19.0597 43.4311 18.9976 43.6054 18.8811C43.7798 18.7646 43.9157 18.599 43.996 18.4053C44.0763 18.2116 44.0973 17.9984 44.0564 17.7927C44.0155 17.587 43.9145 17.3981 43.7662 17.2498ZM45.9227 9.92282H44.5052C44.227 9.92735 43.9617 10.041 43.7666 10.2394C43.5715 10.4377 43.4621 10.7048 43.4621 10.983C43.4621 11.2612 43.5715 11.5283 43.7666 11.7266C43.9617 11.925 44.227 12.0386 44.5052 12.0432H45.9227C46.5084 12.0432 46.9829 11.5684 46.9829 10.983C46.9829 10.3976 46.5084 9.92282 45.9227 9.92282ZM43.766 3.21667C43.5672 3.01787 43.2976 2.90619 43.0164 2.90619C42.7352 2.90619 42.4655 3.01787 42.2667 3.21667L41.2645 4.21891C41.0656 4.41777 40.954 4.68747 40.954 4.96868C40.954 5.24989 41.0657 5.51957 41.2646 5.7184C41.3629 5.81703 41.4797 5.89526 41.6083 5.94857C41.737 6.00188 41.8749 6.02923 42.0141 6.02904C42.1534 6.02921 42.2914 6.00186 42.42 5.94855C42.5487 5.89524 42.6656 5.81702 42.764 5.7184L43.7662 4.71616C43.965 4.51729 44.0767 4.24759 44.0767 3.96638C44.0766 3.68518 43.9649 3.4155 43.766 3.21667ZM65.4082 54.3069C65.4073 54.2884 65.4072 54.2699 65.4054 54.2514C65.4018 54.2144 65.3961 54.1777 65.3885 54.1414L65.3881 54.139L63.4999 45.1702L63.4979 45.1606L61.6099 36.1924L61.6079 36.1828L59.7181 27.2057C59.668 26.9676 59.5375 26.754 59.3486 26.6008C59.1597 26.4475 58.9238 26.3639 58.6805 26.3639H13.3191C13.0758 26.3639 12.8399 26.4476 12.651 26.6008C12.4621 26.7541 12.3317 26.9677 12.2815 27.2057L10.3921 36.1818L10.3897 36.1931L8.5018 45.1615C8.50122 45.164 8.5007 45.1666 8.50026 45.1692L6.61222 54.1382C6.60423 54.1763 6.59831 54.2149 6.5945 54.2538C6.59365 54.2628 6.59379 54.272 6.59309 54.281C6.59126 54.3062 6.58929 54.3314 6.58929 54.3571V58.6101C6.58929 58.8912 6.70099 59.1609 6.89981 59.3597C7.09863 59.5585 7.36829 59.6702 7.64947 59.6702H32.813V65.6266H24.6593C24.3781 65.6266 24.1084 65.7383 23.9096 65.9371C23.7108 66.1359 23.5991 66.4056 23.5991 66.6867V69.8795H13.3192C13.041 69.884 12.7758 69.9977 12.5806 70.1961C12.3855 70.3944 12.2762 70.6615 12.2762 70.9397C12.2762 71.2179 12.3855 71.485 12.5806 71.6833C12.7758 71.8816 13.041 71.9953 13.3192 71.9999H58.6788C58.957 71.9953 59.2223 71.8816 59.4174 71.6833C59.6125 71.485 59.7219 71.2179 59.7219 70.9397C59.7219 70.6615 59.6125 70.3944 59.4174 70.1961C59.2223 69.9977 58.957 69.884 58.6788 69.8795H48.4005V66.6867C48.4005 66.4056 48.2888 66.1359 48.09 65.9371C47.8912 65.7383 47.6215 65.6266 47.3403 65.6266H39.1866V59.6702H64.3503C64.6314 59.6702 64.9011 59.5585 65.0999 59.3597C65.2987 59.1609 65.4104 58.8912 65.4104 58.6101V54.3761L65.4106 54.3713V54.3575C65.4107 54.3402 65.409 54.3238 65.4082 54.3069ZM63.044 53.2971H46.4388L45.9574 46.4398H61.6003L63.044 53.2971ZM59.7103 37.4621L61.1541 44.3194H45.8086L45.3273 37.4621H59.7103ZM57.8203 28.4844L59.2641 35.3417H45.1785L44.6971 28.4844H57.8203ZM29.428 28.4844H42.5716L43.0529 35.3417H28.9468L29.428 28.4844ZM28.7981 37.4621H43.2017L43.6831 44.3194H28.3169L28.7981 37.4621ZM28.1683 46.4399H43.8319L44.3131 53.2971H27.6871L28.1683 46.4399ZM14.1794 28.4844H27.3025L26.8212 35.3417H12.7358L14.1794 28.4844ZM12.2896 37.4621H26.6725L26.1912 44.3194H10.8459L12.2896 37.4621ZM46.2802 67.7473V69.8798H25.7197V67.7473H46.2802ZM34.9336 65.6269V59.6705H37.0662V65.6269H34.9336ZM38.1388 57.55C38.1347 57.55 38.1306 57.5495 38.1265 57.5495H33.8735C33.8694 57.5495 33.8653 57.55 33.8612 57.55H8.70965V55.4176H13.7602C14.0414 55.4176 14.311 55.3059 14.5099 55.1071C14.7087 54.9082 14.8204 54.6386 14.8204 54.3574C14.8204 54.0762 14.7087 53.8066 14.5099 53.6077C14.311 53.4089 14.0414 53.2972 13.7602 53.2972H8.95602L10.3995 46.4399H26.0424L25.5612 53.2971H18.345C18.0639 53.2971 17.7942 53.4088 17.5954 53.6076C17.3965 53.8064 17.2849 54.0761 17.2849 54.3573C17.2849 54.6384 17.3965 54.9081 17.5954 55.1069C17.7942 55.3057 18.0639 55.4174 18.345 55.4174H63.2899V57.5499H38.1388V57.55Z" fill="#0C3B8F"/>
</g>
<defs>
<clipPath id="clip0_3_1193">
<rect width="72" height="72" fill="white"/>
</clipPath>
</defs>
</svg>
