<svg width="72" height="72" viewBox="0 0 72 72" fill="none" xmlns="http://www.w3.org/2000/svg">
<g clip-path="url(#clip0_3_1200)">
<path d="M11.9799 10.89C11.6996 10.89 11.4308 11.0014 11.2326 11.1995C11.0344 11.3977 10.9231 11.6665 10.9231 11.9468V12.7779C10.9231 13.0581 11.0344 13.3269 11.2326 13.5251C11.4308 13.7233 11.6996 13.8346 11.9799 13.8346C12.2602 13.8346 12.529 13.7233 12.7272 13.5251C12.9253 13.3269 13.0367 13.0581 13.0367 12.7779V11.9468C13.0367 11.6665 12.9253 11.3977 12.7272 11.1995C12.529 11.0014 12.2602 10.89 11.9799 10.89Z" fill="#0C3B8F"/>
<path d="M71.2779 63.2553L63.7934 56.0603C64.5676 55.995 65.34 55.909 66.1096 55.8023L68.3908 55.4858C68.9452 55.4089 69.3973 55.0307 69.5708 54.4987C69.7442 53.9666 69.6022 53.3945 69.1996 53.0056L61.0598 45.138C56.942 39.0874 51.8703 33.8077 45.9844 29.4452C45.8729 29.3625 45.7462 29.3026 45.6116 29.2689C45.477 29.2352 45.337 29.2284 45.1997 29.2488C45.0625 29.2692 44.9305 29.3165 44.8115 29.3879C44.6925 29.4593 44.5888 29.5534 44.5062 29.665C44.4235 29.7764 44.3636 29.9031 44.3299 30.0378C44.2962 30.1724 44.2894 30.3123 44.3098 30.4496C44.3302 30.5869 44.3775 30.7188 44.4489 30.8378C44.5203 30.9568 44.6144 31.0606 44.726 31.1432C45.6393 31.8215 46.5341 32.5242 47.4096 33.2506L46.4326 33.3698C42.8608 33.8055 39.6366 35.9155 37.8075 39.014C36.8828 40.5824 35.5278 41.8528 33.9032 42.6747L32.4364 43.4179C29.7223 40.9583 27.3478 38.1483 25.3753 35.0621C23.458 32.0637 24.0739 28.0844 26.8079 25.8061C29.0079 23.9728 32.0706 23.6425 34.6105 24.9642L37.4065 26.4189L39.2729 27.5226C39.8588 27.8697 40.439 28.2261 41.0134 28.5917C41.1305 28.6675 41.2615 28.7193 41.3987 28.7442C41.5359 28.7691 41.6767 28.7666 41.813 28.7369C41.9493 28.7071 42.0783 28.6507 42.1926 28.5708C42.307 28.4909 42.4044 28.3892 42.4792 28.2715C42.5541 28.1538 42.6049 28.0225 42.6287 27.8851C42.6526 27.7476 42.649 27.6068 42.6181 27.4708C42.5873 27.3348 42.5298 27.2062 42.4491 27.0925C42.3683 26.9788 42.2658 26.8822 42.1475 26.8083C41.5539 26.4303 40.9542 26.0619 40.3488 25.7033L38.4577 24.5851C38.4412 24.5753 38.4245 24.566 38.4076 24.5572L35.5863 23.0892C34.1163 22.3227 32.4664 21.9682 30.8113 22.0633L22.8486 14.4636L22.7007 13.6641C22.4011 12.046 21.7588 10.5108 20.8168 9.16149C19.8748 7.81222 18.655 6.68013 17.2393 5.84128C14.7564 4.37009 11.6321 4.2988 9.085 5.65585C7.75209 6.36381 6.63729 7.42161 5.86041 8.71556C5.08353 10.0095 4.67394 11.4907 4.67565 13V13.6376C2.42878 14.6793 0.739752 16.6897 0.113146 19.1L0.0439619 19.3659C-0.0138677 19.5863 -0.0148864 19.8177 0.0410011 20.0385C0.0968885 20.2593 0.207857 20.4624 0.363535 20.6287C0.518288 20.7959 0.712937 20.9211 0.92926 20.9926C1.14558 21.064 1.3765 21.0794 1.6004 21.0373L6.87279 20.0626L9.83152 21.351C9.99801 21.4238 10.1477 21.5301 10.2713 21.6632C10.3949 21.7964 10.4897 21.9537 10.5498 22.1251L13.3078 30.0277C13.5673 30.7716 13.7456 31.5413 13.8398 32.3236L14.1157 34.6193C14.4208 37.1559 15.1246 39.6074 16.2076 41.9054C16.2667 42.0311 16.3499 42.144 16.4526 42.2376C16.5553 42.3311 16.6754 42.4035 16.8061 42.4506C16.9369 42.4976 17.0756 42.5185 17.2143 42.5119C17.3531 42.5053 17.4892 42.4714 17.6148 42.4122C17.7405 42.353 17.8532 42.2695 17.9466 42.1667C18.04 42.0638 18.1122 41.9436 18.1591 41.8128C18.2059 41.682 18.2265 41.5433 18.2197 41.4045C18.2129 41.2658 18.1788 41.1297 18.1194 41.0042C17.1331 38.9114 16.4921 36.6784 16.2141 34.367L16.0852 33.294C17.7731 32.4177 19.5889 31.8804 21.4937 31.6968L22.1606 31.6326C22.2247 33.212 22.6926 34.7898 23.5947 36.2004C28.0737 43.2045 34.4317 48.7465 41.9817 52.2274C42.6156 52.5186 43.2564 52.7946 43.9035 53.0552L39.0137 53.359C31.748 53.8091 24.7931 50.6067 20.4053 44.7896C20.236 44.5672 19.9856 44.4209 19.7087 44.3828C19.4318 44.3446 19.1511 44.4177 18.928 44.586C18.7049 44.7543 18.5575 45.0041 18.5182 45.2808C18.4788 45.5575 18.5507 45.8385 18.718 46.0624C21.9616 50.3625 26.4833 53.3611 31.5263 54.71L28.1027 60.1659H25.5995C25.3192 60.1659 25.0504 60.2772 24.8522 60.4754C24.6541 60.6736 24.5427 60.9424 24.5427 61.2226C24.5427 61.5029 24.6541 61.7717 24.8522 61.9699C25.0504 62.1681 25.3192 62.2794 25.5995 62.2794H28.6872C28.8661 62.2794 29.0421 62.234 29.1986 62.1474C29.3552 62.0608 29.4872 61.9359 29.5823 61.7843L30.2351 60.744L31.0069 61.8335C31.1045 61.9713 31.2338 62.0837 31.3838 62.1613C31.5338 62.2389 31.7003 62.2794 31.8692 62.2794H32.4809L31.7046 63.5249H29.2036C28.9233 63.5249 28.6545 63.6362 28.4563 63.8344C28.2581 64.0326 28.1468 64.3014 28.1468 64.5817C28.1468 64.862 28.2581 65.1308 28.4563 65.3289C28.6545 65.5271 28.9233 65.6385 29.2036 65.6385H32.2912C32.4707 65.6385 32.6472 65.5928 32.8041 65.5057C32.961 65.4186 33.0932 65.293 33.1881 65.1407L33.837 64.0996L34.6111 65.1925C34.7087 65.3304 34.838 65.4428 34.988 65.5204C35.1381 65.598 35.3045 65.6385 35.4734 65.6385H37.795C38.3788 65.6385 38.8518 65.1653 38.8518 64.5817C38.8518 63.9981 38.3788 63.5249 37.795 63.5249H36.0196L35.049 62.1547L39.2194 55.4639L49.3093 54.8368C49.5718 54.9046 49.8348 54.9701 50.0983 55.033L56.9362 59.4895C57.0525 59.5654 57.1825 59.6176 57.3189 59.6432C57.4554 59.6688 57.5955 59.6672 57.7313 59.6385C57.8671 59.6099 57.996 59.5548 58.1105 59.4763C58.225 59.3978 58.3229 59.2976 58.3986 59.1812C58.5516 58.9464 58.6051 58.6604 58.5472 58.3862C58.4894 58.112 58.3251 57.8719 58.0903 57.7189L55.3809 55.9535C56.958 56.1279 58.5435 56.2155 60.1301 56.2157C60.3859 56.2157 60.6419 56.2133 60.8978 56.2087L69.8129 64.779C69.9098 64.8724 69.9133 65.0277 69.8203 65.125C69.7808 65.1664 69.728 65.1926 69.6711 65.1992C69.6143 65.2058 69.5569 65.1923 69.5089 65.1611L61.9461 60.2322C61.8299 60.1564 61.6998 60.1043 61.5634 60.0787C61.427 60.0532 61.2869 60.0548 61.1511 60.0834C61.0153 60.1121 60.8865 60.1672 60.772 60.2456C60.6575 60.324 60.5596 60.4242 60.4838 60.5405C60.3308 60.7753 60.2773 61.0613 60.3351 61.3355C60.3929 61.6098 60.5573 61.8498 60.7921 62.0028L68.3548 66.9317C68.7375 67.1815 69.1847 67.3144 69.6417 67.3141C70.2688 67.3141 70.8904 67.0647 71.349 66.5842C72.2442 65.6471 72.2122 64.1535 71.2779 63.2553ZM5.35172 15.6588L5.37525 15.6934C5.77869 16.283 5.98656 16.9846 5.96945 17.6989L5.96085 18.0817L2.47063 18.7269C3.04731 17.4018 4.06546 16.3176 5.35172 15.6588ZM21.2908 29.5934C19.3643 29.7791 17.5175 30.282 15.7811 31.0894C15.6629 30.4929 15.5032 29.9055 15.3031 29.3313L12.5452 21.4289C12.3888 20.9825 12.142 20.573 11.8203 20.2262C11.4985 19.8794 11.1087 19.6027 10.6753 19.4133L8.07062 18.2791L8.08246 17.7461C8.11025 16.5911 7.77423 15.4567 7.12191 14.5031L6.78923 14.015V13C6.78796 11.8741 7.09349 10.7692 7.673 9.80388C8.25251 8.8386 9.08409 8.04947 10.0784 7.5213C11.9785 6.50917 14.3095 6.56216 16.1615 7.65967C17.3178 8.34479 18.3141 9.26943 19.0835 10.3715C19.8529 11.4735 20.3775 12.7274 20.6222 14.049L20.796 14.9887C20.8579 15.325 21.0217 15.6342 21.2653 15.8743L21.2785 15.8871L28.283 22.5725C27.2521 22.937 26.2944 23.4821 25.4547 24.1825C23.7755 25.5818 22.7128 27.4753 22.3212 29.4942L21.2908 29.5934ZM32.4155 60.1663L31.4516 58.8056L33.7231 55.1857C34.7113 55.3515 35.7091 55.4544 36.7103 55.494L33.7981 60.1664H32.4155V60.1663ZM34.8582 44.5602C36.8428 43.5561 38.498 42.0042 39.6277 40.0883C41.125 37.5518 43.7644 35.8245 46.6885 35.4677L49.5638 35.117C50.3509 35.8302 51.1197 36.5633 51.8696 37.3155L51.7375 37.3316C48.1659 37.7673 44.9417 39.8772 43.1125 42.9757C42.1877 44.5441 40.8328 45.8145 39.2081 46.6364L37.6455 47.428C36.4453 46.6484 35.2866 45.8067 34.1741 44.9064L34.8582 44.5602ZM39.7727 48.72L40.1633 48.522C42.1478 47.5178 43.8029 45.966 44.9327 44.0503C46.4301 41.5137 49.0695 39.7865 51.9934 39.4297L53.6908 39.2227C54.9916 40.6447 56.2263 42.1258 57.3911 43.6612C53.7294 45.3006 50.3684 47.6705 47.6085 50.5743L46.4732 51.7689C45.2487 51.3388 44.0451 50.8514 42.8664 50.3083C41.8135 49.8223 40.7813 49.2924 39.7727 48.72ZM48.7096 52.484L49.1408 52.0304C51.8166 49.215 55.0984 46.9364 58.6722 45.4052C58.9089 45.7396 59.1425 46.0763 59.3728 46.4152C59.4136 46.4754 59.4606 46.5313 59.5128 46.5819L66.7524 53.5794L65.8195 53.7089C60.0581 54.508 54.2413 54.0819 48.7096 52.484Z" fill="#0C3B8F"/>
</g>
<defs>
<clipPath id="clip0_3_1200">
<rect width="72" height="72" fill="white"/>
</clipPath>
</defs>
</svg>
