<svg width="72" height="72" viewBox="0 0 72 72" fill="none" xmlns="http://www.w3.org/2000/svg">
<path d="M33.1875 39.8287C32.9078 39.8287 32.6395 39.9399 32.4417 40.1377C32.2439 40.3355 32.1328 40.6037 32.1328 40.8834V43.0159C32.1328 43.2956 32.2439 43.5639 32.4417 43.7617C32.6395 43.9594 32.9078 44.0706 33.1875 44.0706C33.4672 44.0706 33.7355 43.9594 33.9333 43.7617C34.1311 43.5639 34.2422 43.2956 34.2422 43.0159V40.8834C34.2422 40.7449 34.2149 40.6078 34.1619 40.4798C34.1089 40.3519 34.0312 40.2356 33.9333 40.1377C33.8353 40.0397 33.7191 39.962 33.5911 39.909C33.4632 39.856 33.326 39.8287 33.1875 39.8287ZM17.8726 24.126H13.768C12.7991 24.126 12.0102 24.9142 12.0102 25.8838V36.4713C12.0102 37.4408 12.7991 38.2291 13.768 38.2291H17.8726C18.8415 38.2291 19.6304 37.4408 19.6304 36.4713V25.8837C19.6304 24.9142 18.8415 24.1259 17.8726 24.1259V24.126ZM17.521 36.1198H14.1196V26.2352H17.521V36.1198ZM58.232 24.126H54.1274C53.1585 24.126 52.3696 24.9142 52.3696 25.8838V36.4713C52.3696 37.4408 53.1585 38.2291 54.1274 38.2291H58.232C59.2009 38.2291 59.9898 37.4408 59.9898 36.4713V25.8837C59.9898 24.9142 59.2009 24.1259 58.232 24.1259V24.126ZM57.8804 36.1198H54.479V26.2352H57.8804V36.1198ZM36.4598 15.6375H35.5402C33.2584 15.6375 31.4023 17.494 31.4023 19.7759V23.7848C31.4023 24.6214 32.0829 25.302 32.9195 25.302H39.0805C39.9173 25.302 40.5979 24.6214 40.5979 23.7847V19.776C40.5979 17.4941 38.7416 15.6375 36.4598 15.6375ZM33.5109 23.1927V19.7759C33.5109 18.657 34.4212 17.7467 35.5402 17.7467H36.4598C37.5782 17.7467 38.4884 18.657 38.4884 19.7759V23.1927H33.5109Z" fill="#0C3B8F"/>
<path d="M70.9453 50.3625H65.9877V19.2327H70.2422C70.814 19.2327 71.3035 18.9636 71.5523 18.5126C71.8006 18.0615 71.7666 17.5035 71.4611 17.02L62.8335 3.37078C62.4364 2.74177 61.6075 2.2853 60.8638 2.2853H38.6536L37.2607 0.604688C36.942 0.220359 36.4823 0 36 0C35.5171 0 35.0578 0.220219 34.7393 0.604688L33.3463 2.28516H11.1361C10.3918 2.28516 9.56348 2.74163 9.1658 3.37064L0.538875 17.0198C0.233438 17.5039 0.199406 18.0613 0.44775 18.5124C0.696656 18.9634 1.18603 19.2324 1.75781 19.2324H6.01228V41.7315C4.95155 42.7461 4.28906 44.1727 4.28906 45.7529C4.28906 46.0426 4.31269 46.3265 4.35558 46.6044H3.90783C2.93892 46.6044 2.15002 47.3933 2.15002 48.3622V50.3623H1.05469C0.774967 50.3623 0.506703 50.4734 0.308911 50.6712C0.111119 50.869 0 51.1373 0 51.417C0 51.6967 0.111119 51.965 0.308911 52.1628C0.506703 52.3606 0.774967 52.4717 1.05469 52.4717H70.9453C71.225 52.4717 71.4933 52.3606 71.6911 52.1628C71.8889 51.965 72 51.6967 72 51.417C72 51.1373 71.8889 50.869 71.6911 50.6712C71.4933 50.4734 71.225 50.3623 70.9453 50.3623V50.3625ZM66.6162 13.3028H47.7879L46.3892 11.6153H65.5494L66.6162 13.3028ZM63.1493 7.81847L64.2161 9.50597H44.6401L43.2411 7.81847H63.1493ZM60.8527 4.39453C60.9103 4.40438 61.0175 4.46372 61.0566 4.50703L61.8162 5.70909H41.4921L40.4028 4.39453H60.8527ZM8.85052 7.81847H15.8906C16.1703 7.81847 16.4386 7.70735 16.6364 7.50956C16.8342 7.31177 16.9453 7.0435 16.9453 6.76378C16.9453 6.48406 16.8342 6.2158 16.6364 6.018C16.4386 5.82021 16.1703 5.70909 15.8906 5.70909H10.1832L10.9434 4.50661C10.9825 4.46372 11.0897 4.40438 11.1468 4.39453H31.597L30.5072 5.70909H20.8125C20.5328 5.70909 20.2645 5.82021 20.0667 6.018C19.8689 6.2158 19.7578 6.48406 19.7578 6.76378C19.7578 7.0435 19.8689 7.31177 20.0667 7.50956C20.2645 7.70735 20.5328 7.81847 20.8125 7.81847H28.7589L27.3597 9.50597H7.78402L8.85052 7.81847ZM6.45061 11.6153H25.6108L24.2115 13.3028H5.38397L6.45061 11.6153ZM2.96902 17.1233L4.0507 15.4122H22.4632L21.0442 17.1233H2.96902ZM23.3118 40.1297C22.5131 39.6744 21.5952 39.4145 20.6279 39.4145C18.7279 39.4145 16.9661 40.4265 15.983 42.0106C15.7169 41.9588 15.4465 41.9329 15.1754 41.9332C14.7817 41.9332 14.4003 41.9887 14.0383 42.0908C12.9974 40.9092 11.4768 40.1858 9.85584 40.1858C9.25045 40.1858 8.66756 40.2847 8.12166 40.4643V19.2327H19.2953C18.9124 19.6952 18.8186 20.2565 19.0432 20.735C19.2684 21.214 19.7617 21.5003 20.3626 21.5003H23.3118V40.1297ZM11.0022 46.6045H6.50672C6.43536 46.3263 6.39899 46.0403 6.39844 45.753C6.39844 43.8465 7.94967 42.2951 9.85584 42.2951C10.7265 42.2951 11.5504 42.6319 12.1762 43.1972C11.4335 43.9557 10.9748 44.993 10.9748 46.1354C10.9748 46.2943 10.9846 46.4507 11.0022 46.6045ZM23.3118 50.3625H4.25953V48.7139H23.312L23.3118 50.3625ZM23.3124 46.6045H13.1392C13.104 46.4541 13.0842 46.297 13.0842 46.1354C13.0842 44.9813 14.0224 44.0425 15.1754 44.0425C15.4875 44.0425 15.788 44.11 16.0687 44.2425C16.1998 44.3045 16.3422 44.3389 16.4872 44.3434C16.6322 44.348 16.7765 44.3226 16.9113 44.2689C17.046 44.215 17.1682 44.1339 17.2701 44.0307C17.3721 43.9275 17.4517 43.8043 17.504 43.669C17.999 42.3858 19.2552 41.5239 20.6284 41.5239C21.7122 41.5239 22.6956 42.0556 23.3124 42.8808V46.6045ZM21.9046 19.3908L36 2.38908L50.0954 19.3911H48.2355L36.8118 5.61262C36.7128 5.49335 36.5887 5.39733 36.4484 5.33137C36.3081 5.26541 36.155 5.23113 36 5.23097C35.8449 5.23095 35.6918 5.26516 35.5514 5.33115C35.4111 5.39715 35.2871 5.49331 35.1882 5.61277L23.7645 19.3908H21.9046ZM40.466 50.3625H31.534V33.9933H40.466V50.3625ZM63.8783 50.3625H48.688V37.6265C48.688 37.0443 48.2157 36.5718 47.6333 36.5718C47.0512 36.5718 46.5787 37.0443 46.5787 37.6265V50.3625H42.5753V33.6417C42.5753 32.6728 41.787 31.8839 40.8175 31.8839H31.1825C30.213 31.8839 29.4247 32.6728 29.4247 33.6417V50.3625H25.4212V20.6976L36 7.93828L46.5788 20.6979V32.6344C46.5788 32.9141 46.6899 33.1824 46.8877 33.3802C47.0855 33.578 47.3538 33.6891 47.6335 33.6891C47.9132 33.6891 48.1815 33.578 48.3793 33.3802C48.5771 33.1824 48.6882 32.9141 48.6882 32.6344V21.5004H51.6368C52.2378 21.5004 52.7311 21.2141 52.9563 20.7352C53.1816 20.2568 53.0871 19.6954 52.7047 19.2329H56.8125C57.0922 19.2329 57.3605 19.1217 57.5583 18.9239C57.7561 18.7262 57.8672 18.4579 57.8672 18.1782C57.8672 17.8985 57.7561 17.6302 57.5583 17.4324C57.3605 17.2346 57.0922 17.1235 56.8125 17.1235H50.9557L49.5368 15.4124H67.9493L69.031 17.1235H61.875C61.5953 17.1235 61.327 17.2346 61.1292 17.4324C60.9314 17.6302 60.8203 17.8985 60.8203 18.1782C60.8203 18.4579 60.9314 18.7262 61.1292 18.9239C61.327 19.1217 61.5953 19.2329 61.875 19.2329H63.8783V50.3625Z" fill="#0C3B8F"/>
</svg>
