<?xml version="1.0" encoding="UTF-8"?><svg id="Layer_2" xmlns="http://www.w3.org/2000/svg" viewBox="0 0 512 101.95"><defs><style>.cls-1{fill:#fff;}</style></defs><g id="Layer_1-2"><path class="cls-1" d="m51.09,0l12.06,38.94h39.02l-31.57,24.06,12.06,38.94-31.58-24.08-31.57,24.08,12.06-38.94L0,38.94h39.02L51.09,0Zm102.46,0l12.05,38.94h39.04l-31.58,24.06,12.06,38.94-31.57-24.08-31.58,24.08,12.06-38.94-31.58-24.06h39.04L153.55,0Zm102.45,0l12.06,38.94h39.02l-31.57,24.06,12.06,38.94-31.58-24.08-31.58,24.08,12.06-38.94-31.57-24.06h39.02L256,0Zm102.45,0l12.06,38.94h39.04l-31.58,24.06,12.06,38.94-31.58-24.08-31.57,24.08,12.06-38.94-31.58-24.06h39.04L358.45,0Zm102.46,0l12.06,38.94h39.02l-31.58,24.06,12.06,38.94-31.57-24.08-31.58,24.08,12.06-38.94-31.57-24.06h39.02L460.91,0Z"/></g></svg>