<svg xmlns="http://www.w3.org/2000/svg" version="1.1" xmlns:xlink="http://www.w3.org/1999/xlink" xmlns:svgjs="http://svgjs.com/svgjs" width="512" height="512" x="0" y="0" viewBox="0 0 64 64" style="enable-background:new 0 0 512 512" xml:space="preserve" class=""><g><path d="M12 53h5a1 1 0 0 0 0-2h-4v-2h38v2H23a1 1 0 0 0 0 2h5v9h-5a1 1 0 0 0 0 2h15a1 1 0 0 0 0-2h-2v-9h16a1 1 0 0 0 1-1v-4c0-.027-.013-.05-.016-.077-.002-.024.008-.046.005-.07l-4-27A.999.999 0 0 0 48 20H16a.999.999 0 0 0-.989.854l-4 27c-.003.024.007.046.005.07-.003.026-.016.049-.016.076v4a1 1 0 0 0 1 1zm22 9h-4v-9h4zM14.196 40h7.394l-.519 7h-7.912zm1.334-9h6.727l-.518 7h-7.246zm33.978 7h-7.246l-.518-7h6.727zm-9.251 0H33v-7h6.738zM33 40h7.405l.519 7H33zm-2 7h-7.923l.519-7H31zm2-18v-7h6.072l.519 7zm-2 0h-6.59l.519-7H31zm0 2v7h-7.257l.518-7zm11.929 16-.519-7h7.394l1.037 7zm5.245-18h-6.579l-.519-7h6.061zm-31.311-7h6.061l-.519 7h-6.579zM25.929 12.928H31V18a1 1 0 0 0 1.848.53l6.071-9.714a1 1 0 0 0-.849-1.53H33V1a1 1 0 0 0-1.874-.486l-6.071 10.928a1.002 1.002 0 0 0 .874 1.486zM31 4.859v3.427a1 1 0 0 0 1 1h4.267L33 14.513v-2.585a1 1 0 0 0-1-1h-4.372z" fill="#0c3b8f" data-original="#000000" class=""></path><circle cx="20" cy="52" r="1" fill="#0c3b8f" data-original="#000000" class=""></circle><circle cx="41" cy="63" r="1" fill="#0c3b8f" data-original="#000000" class=""></circle></g></svg>