<svg width="1280" height="157" viewBox="0 0 1280 157" fill="none" xmlns="http://www.w3.org/2000/svg">
<path d="M-213 -177.164C-121.273 -227.067 -92.5622 -174.233 -0.835119 -224.136C90.892 -274.039 62.1813 -326.873 153.882 -376.762C245.583 -426.65 274.32 -373.83 366.047 -423.733C457.774 -473.636 429.063 -526.471 520.79 -576.374C612.517 -626.277 641.228 -573.442 732.982 -623.36C824.735 -673.277 795.998 -726.097 887.725 -776M16.8028 245.714C108.53 195.811 137.241 248.645 228.968 198.742C320.695 148.839 291.984 96.0047 383.685 46.116C475.385 -3.77257 504.123 49.0475 595.85 -0.855489C687.577 -50.7585 658.866 -103.593 750.593 -153.496C842.32 -203.399 871.031 -150.564 962.784 -200.482C1054.54 -250.399 1025.8 -303.219 1117.53 -353.122M-98.0992 34.2769C-6.37208 -15.6261 22.3386 37.2083 114.066 -12.6947C205.793 -62.5976 177.082 -115.432 268.783 -165.321C360.484 -215.209 389.221 -162.389 480.948 -212.292C572.675 -262.195 543.964 -315.03 635.691 -364.933C727.418 -414.835 756.129 -362.001 847.882 -411.918C939.636 -461.836 910.899 -514.656 1002.63 -564.559M131.704 457.164C223.431 407.261 252.2 460.203 343.927 410.3C435.654 360.397 406.885 307.455 498.586 257.566C590.286 207.678 619.082 260.605 710.809 210.702C802.536 160.799 773.767 107.857 865.494 57.9544C957.221 8.0514 985.99 60.9932 1077.74 11.0759C1169.5 -38.8414 1140.7 -91.7689 1232.43 -141.672M289.73 747.973C381.457 698.07 410.168 750.904 501.895 701.001C593.622 651.098 564.911 598.264 656.612 548.375C748.313 498.486 777.05 551.306 868.777 501.403C960.504 451.501 931.793 398.666 1023.52 348.763C1115.25 298.86 1143.96 351.695 1235.71 301.777C1327.47 251.86 1298.73 199.04 1390.46 149.137M-155.578 -71.5C-63.8512 -121.403 -35.0821 -68.4612 56.645 -118.364C148.372 -168.267 119.603 -221.209 211.304 -271.098C303.004 -320.986 331.8 -268.059 423.527 -317.962C515.254 -367.865 486.485 -420.806 578.212 -470.709C669.939 -520.612 698.708 -467.671 790.462 -517.588C882.215 -567.505 853.42 -620.433 945.147 -670.336M74.2819 351.499C166.009 301.597 194.72 354.431 286.447 304.528C378.174 254.625 349.463 201.791 441.164 151.902C532.865 102.013 561.602 154.833 653.329 104.93C745.056 55.0274 716.345 2.19302 808.072 -47.7099C899.799 -97.6129 928.51 -44.7785 1020.26 -94.6958C1112.02 -144.613 1083.28 -197.433 1175.01 -247.336M-40.619 140.049C51.1081 90.1463 79.8188 142.981 171.546 93.0777C263.273 43.1748 234.562 -9.65966 326.263 -59.5483C417.964 -109.437 446.701 -56.6168 538.428 -106.52C630.155 -156.423 601.444 -209.257 693.171 -259.16C784.898 -309.063 813.609 -256.229 905.363 -306.146C997.116 -356.063 968.379 -408.883 1060.11 -458.786M189.183 562.945C280.91 513.042 309.621 565.877 401.348 515.974C493.075 466.071 464.365 413.236 556.065 363.348C647.766 313.459 676.503 366.279 768.23 316.376C859.957 266.473 831.246 213.639 922.974 163.736C1014.7 113.833 1043.41 166.667 1135.16 116.75C1226.92 66.8325 1198.18 14.0125 1289.91 -35.8905M347.151 853.637C438.878 803.734 467.647 856.676 559.374 806.773C651.101 756.87 622.332 703.928 714.033 654.039C805.734 604.151 834.529 657.078 926.256 607.175C1017.98 557.272 989.214 504.33 1080.94 454.427C1172.67 404.524 1201.44 457.466 1293.19 407.549C1384.94 357.632 1356.15 304.704 1447.88 254.801M-184.289 -124.332C-92.5623 -174.235 -63.8516 -121.401 27.8755 -171.304C119.603 -221.207 90.8919 -274.041 182.593 -323.93C274.293 -373.818 303.03 -320.998 394.757 -370.901C486.485 -420.804 457.774 -473.639 549.501 -523.542C641.228 -573.445 669.939 -520.61 761.692 -570.527C853.446 -620.445 824.709 -673.265 916.436 -723.168M45.5128 298.55C137.24 248.647 166.009 301.589 257.736 251.686C349.463 201.783 320.694 148.841 412.395 98.9527C504.096 49.0641 532.891 101.992 624.618 52.0885C716.345 2.18557 687.576 -50.7562 779.303 -100.659C871.03 -150.562 899.799 -97.6203 991.553 -147.538C1083.31 -197.455 1054.51 -250.382 1146.24 -300.285M-69.388 87.109C22.3391 37.2061 51.1081 90.1478 142.835 40.2449C234.562 -9.6581 205.793 -62.5999 297.494 -112.489C389.195 -162.377 417.99 -109.45 509.717 -159.353C601.444 -209.256 572.675 -262.197 664.402 -312.1C756.129 -362.003 784.898 -309.062 876.652 -358.979C968.405 -408.896 939.61 -461.824 1031.34 -511.727M160.472 510.109C252.199 460.206 280.91 513.04 372.637 463.137C464.364 413.234 435.653 360.4 527.354 310.511C619.055 260.622 647.792 313.442 739.519 263.539C831.246 213.636 802.535 160.802 894.262 110.899C985.99 60.9961 1014.7 113.831 1106.45 63.9132C1198.21 13.9959 1169.47 -38.8242 1261.2 -88.7271M318.44 800.8C410.167 750.897 438.878 803.732 530.605 753.829C622.332 703.926 593.621 651.091 685.322 601.203C777.023 551.314 805.76 604.134 897.487 554.231C989.214 504.328 960.503 451.494 1052.23 401.591C1143.96 351.688 1172.67 404.522 1264.42 354.605C1356.18 304.688 1327.44 251.868 1419.17 201.965M-126.81 -18.5553C-35.0827 -68.4583 -6.37198 -15.6238 85.3551 -65.5268C177.082 -115.43 148.372 -168.264 240.072 -218.153C331.773 -268.041 360.51 -215.221 452.237 -265.124C543.964 -315.027 515.253 -367.862 606.981 -417.765C698.708 -467.668 727.418 -414.833 819.172 -464.751C910.925 -514.668 882.188 -567.488 973.915 -617.391M102.992 404.332C194.72 354.429 223.43 407.263 315.157 357.36C406.884 307.457 378.174 254.623 469.874 204.734C561.575 154.845 590.312 207.666 682.039 157.763C773.766 107.86 745.056 55.0252 836.783 5.12221C928.51 -44.7808 957.221 8.05365 1048.97 -41.8637C1140.73 -91.781 1111.99 -144.601 1203.72 -194.504M261.019 695.136C352.746 645.233 381.457 698.067 473.184 648.164C564.911 598.261 536.2 545.427 627.901 495.538C719.601 445.65 748.339 498.47 840.066 448.567C931.793 398.664 903.082 345.829 994.809 295.926C1086.54 246.024 1115.25 298.858 1207 248.941C1298.75 199.023 1270.02 146.203 1361.74 96.3002M-11.9084 192.886C79.8187 142.983 108.529 195.817 200.257 145.914C291.984 96.0114 263.273 43.177 354.974 -6.71161C446.674 -56.6002 475.411 -3.78017 567.139 -53.6831C658.866 -103.586 630.155 -156.42 721.882 -206.323C813.609 -256.226 842.32 -203.392 934.073 -253.309C1025.83 -303.227 997.09 -356.047 1088.82 -405.95M217.894 615.782C309.621 565.879 338.332 618.713 430.059 568.81C521.786 518.907 493.075 466.073 584.776 416.184C676.477 366.296 705.214 419.116 796.941 369.213C888.668 319.31 859.957 266.475 951.684 216.572C1043.41 166.669 1072.12 219.504 1163.88 169.587C1255.63 119.669 1226.89 66.8492 1318.62 16.9462M375.92 906.577C467.647 856.674 496.357 909.509 588.084 859.606C679.812 809.703 651.101 756.868 742.802 706.98C834.502 657.091 863.239 709.911 954.966 660.008C1046.69 610.105 1017.98 557.271 1109.71 507.368C1201.44 457.465 1230.15 510.299 1321.9 460.382C1413.65 410.464 1384.92 357.644 1476.64 307.741M-198.644 -150.751C-106.917 -200.653 -78.2064 -147.819 13.5207 -197.722C105.248 -247.625 76.5372 -300.459 168.238 -350.348C259.939 -400.237 288.676 -347.417 380.403 -397.32C472.13 -447.223 443.419 -500.057 535.146 -549.96C626.873 -599.863 655.584 -547.028 747.338 -596.946C839.091 -646.863 810.354 -699.683 902.081 -749.586M31.1575 272.141C122.885 222.238 151.654 275.18 243.381 225.277C335.108 175.374 306.339 122.432 398.04 72.5434C489.74 22.6548 518.536 75.5822 610.263 25.6792C701.99 -24.2238 673.221 -77.1655 764.948 -127.069C856.675 -176.971 885.444 -124.03 977.197 -173.947C1068.95 -223.864 1040.16 -276.792 1131.88 -326.695M-83.7439 60.6907C7.98321 10.7877 36.6939 63.6221 128.421 13.7192C220.148 -36.1838 191.437 -89.0182 283.138 -138.907C374.839 -188.795 403.576 -135.975 495.303 -185.878C587.03 -235.781 558.319 -288.616 650.046 -338.519C741.774 -388.422 770.484 -335.587 862.238 -385.505C953.991 -435.422 925.254 -488.242 1016.98 -538.145M146.059 483.587C237.786 433.684 266.555 486.625 358.282 436.722C450.009 386.819 421.24 333.878 512.941 283.989C604.642 234.1 633.437 287.028 725.164 237.125C816.891 187.222 788.122 134.28 879.849 84.3772C971.576 34.4742 1000.35 87.4161 1092.1 37.4988C1183.85 -12.4186 1155.06 -65.3461 1246.78 -115.249M304.085 774.386C395.812 724.483 424.523 777.318 516.25 727.415C607.977 677.512 579.267 624.677 670.967 574.789C762.668 524.9 791.405 577.72 883.132 527.817C974.859 477.914 946.148 425.08 1037.88 375.177C1129.6 325.274 1158.31 378.108 1250.07 328.191C1341.82 278.274 1313.08 225.454 1404.81 175.551M-141.164 -44.9736C-49.4374 -94.8766 -20.7267 -42.0422 71.0004 -91.9451C162.727 -141.848 134.017 -194.683 225.718 -244.571C317.418 -294.46 346.155 -241.64 437.882 -291.543C529.61 -341.446 500.899 -394.28 592.626 -444.183C684.353 -494.086 713.064 -441.252 804.817 -491.169C896.571 -541.086 867.834 -593.906 959.561 -643.809M88.6377 377.913C180.365 328.01 209.075 380.845 300.803 330.942C392.53 281.039 363.819 228.204 455.52 178.316C547.22 128.427 575.958 181.247 667.685 131.344C759.412 81.4413 730.701 28.6069 822.428 -21.2961C914.155 -71.1991 942.866 -18.3647 1034.62 -68.282C1126.37 -118.199 1097.64 -171.019 1189.36 -220.922M246.604 668.61C338.332 618.707 367.101 671.648 458.828 621.745C550.555 571.842 521.786 518.901 613.486 469.012C705.187 419.123 733.983 472.051 825.71 422.148C917.437 372.245 888.668 319.303 980.395 269.4C1072.12 219.497 1100.89 272.439 1192.64 222.522C1284.4 172.604 1255.6 119.677 1347.33 69.7738M-26.2637 166.468C65.4634 116.565 94.1741 169.399 185.901 119.496C277.628 69.5931 248.918 16.7587 340.618 -33.1299C432.319 -83.0186 461.056 -30.1985 552.783 -80.1015C644.51 -130.004 615.8 -182.839 707.527 -232.742C799.254 -282.645 827.965 -229.81 919.718 -279.728C1011.47 -329.645 982.734 -382.465 1074.46 -432.368M203.539 589.359C295.266 539.456 323.976 592.29 415.703 542.387C507.431 492.485 478.72 439.65 570.421 389.761C662.121 339.873 690.858 392.693 782.585 342.79C874.313 292.887 845.602 240.053 937.329 190.15C1029.06 140.247 1057.77 193.081 1149.52 143.164C1241.27 93.2464 1212.54 40.4263 1304.26 -9.47665M361.564 880.163C453.291 830.26 482.002 883.095 573.729 833.192C665.456 783.289 636.745 730.454 728.446 680.566C820.146 630.677 848.884 683.497 940.611 633.594C1032.34 583.691 1003.63 530.857 1095.35 480.954C1187.08 431.051 1215.79 483.885 1307.55 433.968C1399.3 384.051 1370.56 331.231 1462.29 281.328M-169.934 -97.9183C-78.2065 -147.821 -49.4374 -94.8795 42.2897 -144.783C134.017 -194.685 105.248 -247.627 196.948 -297.516C288.649 -347.404 317.445 -294.477 409.172 -344.38C500.899 -394.283 472.13 -447.225 563.857 -497.128C655.584 -547.031 684.353 -494.089 776.106 -544.006C867.86 -593.924 839.065 -646.851 930.792 -696.754M59.9266 325.077C151.654 275.174 180.364 328.008 272.091 278.105C363.819 228.202 335.108 175.368 426.809 125.479C518.509 75.5905 547.246 128.411 638.973 78.5076C730.701 28.6046 701.99 -24.2298 793.717 -74.1328C885.444 -124.036 914.155 -71.2013 1005.91 -121.119C1097.66 -171.036 1068.92 -223.856 1160.65 -273.759M-55.0327 113.523C36.6943 63.6199 65.4634 116.562 157.19 66.6587C248.918 16.7557 220.149 -36.1861 311.849 -86.0747C403.55 -135.963 432.345 -83.0359 524.073 -132.939C615.8 -182.842 587.031 -235.784 678.758 -285.687C770.485 -335.589 799.254 -282.648 891.007 -332.565C982.761 -382.482 953.965 -435.41 1045.69 -485.313M174.827 536.522C266.554 486.619 295.265 539.454 386.992 489.551C478.719 439.648 450.009 386.813 541.709 336.925C633.41 287.036 662.147 339.856 753.874 289.953C845.601 240.05 816.891 187.216 908.618 137.313C1000.34 87.41 1029.06 140.244 1120.81 90.327C1212.56 40.4097 1183.83 -12.4103 1275.55 -62.3133M332.795 827.228C424.522 777.325 453.291 830.266 545.018 780.363C636.746 730.46 607.977 677.519 699.677 627.63C791.378 577.741 820.173 630.669 911.9 580.766C1003.63 530.863 974.858 477.921 1066.59 428.018C1158.31 378.115 1187.08 431.057 1278.84 381.14C1370.59 331.222 1341.79 278.295 1433.52 228.392M-112.454 7.85855C-20.7268 -42.0444 7.98388 10.79 99.711 -39.113C191.438 -89.016 162.727 -141.85 254.428 -191.739C346.129 -241.628 374.866 -188.808 466.593 -238.711C558.32 -288.613 529.609 -341.448 621.336 -391.351C713.064 -441.254 741.774 -388.419 833.528 -438.337C925.281 -488.254 896.544 -541.074 988.271 -590.977M117.348 430.75C209.075 380.847 237.786 433.681 329.513 383.778C421.24 333.875 392.529 281.041 484.23 231.152C575.93 181.264 604.668 234.084 696.395 184.181C788.122 134.278 759.411 81.4435 851.138 31.5405C942.865 -18.3624 971.576 34.472 1063.33 -15.4453C1155.08 -65.3627 1126.35 -118.183 1218.07 -168.086M275.374 721.554C367.101 671.651 395.812 724.486 487.539 674.583C579.266 624.68 550.555 571.845 642.256 521.957C733.957 472.068 762.694 524.888 854.421 474.985C946.148 425.082 917.437 372.248 1009.16 322.345C1100.89 272.442 1129.6 325.276 1221.36 275.359C1313.11 225.442 1284.37 172.622 1376.1 122.719M2.44691 219.304C94.174 169.401 122.885 222.236 214.612 172.333C306.339 122.43 277.628 69.5953 369.329 19.7067C461.03 -30.1819 489.767 22.6382 581.494 -27.2648C673.221 -77.1678 644.51 -130.002 736.237 -179.905C827.964 -229.808 856.675 -176.974 948.429 -226.891C1040.18 -276.808 1011.44 -329.628 1103.17 -379.531M232.249 642.191C323.976 592.288 352.745 645.23 444.472 595.327C536.199 545.424 507.43 492.482 599.131 442.594C690.831 392.705 719.627 445.632 811.354 395.729C903.081 345.826 874.312 292.885 966.039 242.982C1057.77 193.079 1086.54 246.021 1178.29 196.103C1270.04 146.186 1241.25 93.2585 1332.97 43.3555M390.275 933C482.002 883.097 510.713 935.931 602.44 886.028C694.167 836.125 665.456 783.291 757.157 733.402C848.858 683.514 877.595 736.334 969.322 686.431C1061.05 636.528 1032.34 583.693 1124.07 533.791C1215.79 483.888 1244.5 536.722 1336.26 486.805C1428.01 436.887 1399.27 384.067 1491 334.164" stroke="white" stroke-miterlimit="10"/>
</svg>
