<svg xmlns="http://www.w3.org/2000/svg" version="1.1" xmlns:xlink="http://www.w3.org/1999/xlink" xmlns:svgjs="http://svgjs.com/svgjs" width="512" height="512" x="0" y="0" viewBox="0 0 66 66" style="enable-background:new 0 0 512 512" xml:space="preserve" class=""><g><path d="M61.9 47c-2.5-2.4-5.9-3.1-9.1-2L39.3 31.9c1.1-3.3.3-6.6-2.2-9-1.9-1.9-4.5-2.9-7.2-2.9-1.9 0-2.8 2.3-1.4 3.6L32 27c.7.7.7 1.7 0 2.4l-2.8 2.9c-.6.7-1.8.7-2.4 0l-3.5-3.4c-.8-.8-2.2-.8-3 0-.4.4-.6.9-.6 1.5.1 2.6 1.1 5.1 3 7 2.4 2.5 6 3.1 9.2 2.1l13.5 13.1c-1 3.3-.1 6.9 2.3 9.2 1.9 1.8 4.4 2.8 7 2.8h.1c1.9 0 2.7-2.3 1.4-3.6l-3.5-3.4c-.7-.7-.7-1.7-.1-2.4l2.8-2.9c.6-.7 1.7-.7 2.4 0l3.5 3.4c1.2 1.2 3.6.4 3.6-1.5 0-2.8-1.1-5.3-3-7.2z" fill="#fd7e14" data-original="#000000" class=""></path><path d="M17.5 29.9c0-6.4 5.2-11.7 11.6-11.9 2.2-.5 6.4.5 9.4 3.4 2.8 2.7 3.8 6.2 3.1 9.9l7.5 7.3c.4-.8.7-1.7.9-2.5l7-.7c.5 0 .9-.5.9-1v-9c0-.5-.4-.9-.9-1l-7-.7c-.4-1.4-1-2.7-1.6-4l4.4-5.4c.3-.4.3-1-.1-1.3l-6.4-6.4c-.4-.4-.9-.4-1.3-.1L39.6 11c-1.3-.7-2.6-1.2-4-1.7l-.7-7c0-.5-.5-.9-1-.9h-9c-.5 0-.9.4-1 .9l-.7 7c-1.4.4-2.7 1-4 1.7l-5.4-4.5c-.4-.3-1-.3-1.3.1L6.1 13c-.4.4-.4.9-.1 1.3l4.5 5.4c-.7 1.3-1.3 2.6-1.7 4l-7 .7c-.5 0-.9.5-.9 1v9c0 .5.4 1 .9 1l7 .7c.4 1.4 1 2.7 1.6 3.9l-4.5 5.4c-.3.4-.3 1 .1 1.3l6.4 6.4c.4.4 1 .4 1.3.1l5.4-4.5c1.3.7 2.6 1.2 4 1.7l.7 7c0 .5.5.9 1 .9h9c.5 0 1-.4 1-.9l.7-7c1-.4 2.1-.9 3.2-1.5l-7.5-7.3c-7.3 1.7-13.7-4.6-13.7-11.7z" fill="#fd7e14" data-original="#000000" class=""></path></g></svg>