<svg xmlns="http://www.w3.org/2000/svg" version="1.1" xmlns:xlink="http://www.w3.org/1999/xlink" xmlns:svgjs="http://svgjs.com/svgjs" width="512" height="512" x="0" y="0" viewBox="0 0 32 32" style="enable-background:new 0 0 512 512" xml:space="preserve" class=""><g><g data-name="42-Certificate"><path d="M25 8h4.41L24 2.59V7a1 1 0 0 0 1 1z" fill="#fd7e14" data-original="#000000" class=""></path><path d="M25 10a3 3 0 0 1-3-3V2H11a3 3 0 0 0-3 3v3a8 8 0 0 1 6 13.27V29a2.81 2.81 0 0 1-.18 1H27a3 3 0 0 0 3-3V10zM15 9a1 1 0 0 1 1-1h3a1 1 0 0 1 0 2h-3a1 1 0 0 1-1-1zm10 16h-8a1 1 0 0 1 0-2h8a1 1 0 0 1 0 2zm0-5h-6a1 1 0 0 1 0-2h6a1 1 0 0 1 0 2zm0-5h-6a1 1 0 0 1 0-2h6a1 1 0 0 1 0 2z" fill="#fd7e14" data-original="#000000" class=""></path><path d="M4 22.92V29a1 1 0 0 0 .62.92 1 1 0 0 0 1.09-.21L8 27.41l2.29 2.3A1 1 0 0 0 11 30a.84.84 0 0 0 .38-.08A1 1 0 0 0 12 29v-6.08a7.95 7.95 0 0 1-8 0z" fill="#fd7e14" data-original="#000000" class=""></path><circle cx="8" cy="16" r="6" fill="#fd7e14" data-original="#000000" class=""></circle></g></g></svg>