<svg xmlns="http://www.w3.org/2000/svg" version="1.1" xmlns:xlink="http://www.w3.org/1999/xlink" xmlns:svgjs="http://svgjs.com/svgjs" width="512" height="512" x="0" y="0" viewBox="0 0 512 512" style="enable-background:new 0 0 512 512" xml:space="preserve" class=""><g><path d="M128.477 23.317c26.016-20.32 76.032-26.112 96.608-22.144 20.608 3.936 31.36 15.36 31.488 29.312l1.184 177.504c.096 13.952-7.2 26.752-16.224 28.48-9.056 1.696-22.4-6.592-29.76-18.464L117.917 65.781c-7.264-11.872-21.92-17.12 10.56-42.464zm-31.168 337.6 94.496-33.184c13.152-4.64 24.96-17.536 26.272-28.736 1.28-11.2-8.288-24.512-21.28-29.6l-99.808-39.264c-12.992-5.12-28 6.976-31.936 26.752 0 0-2.368 68.896 0 83.136 2.4 14.272 19.072 25.568 32.256 20.896zm164.832 16.608c.256-13.984-7.232-26.048-16.704-26.912-9.472-.864-24.512 7.136-33.504 17.792l-65.92 78.464c-8.96 10.656-4.512 35.68 8.576 40.448l68.928 23.744c13.12 4.736 36.224-9.28 36.48-23.232l2.144-110.304zm163.808-18.272-82.656-23.584c-13.408-3.84-28.608-3.456-33.76.864-5.152 4.256-3.872 17.792 2.88 30.016l52.16 94.752c6.72 12.192 33.728 10.112 41.152-1.728 0 0 31.424-46.016 37.216-63.296 5.792-17.312-3.584-33.216-16.992-37.024zm20.128-133.248c-3.712-12-29.568-47.328-43.552-59.36-13.984-12.064-29.984-10.56-38.976.032l-53.28 63.008c-9.024 10.592-11.456 27.424-5.44 37.28 6.016 9.888 22.048 15.488 35.68 12.448l92.128-16.96c16.64-3.968 17.248-24.448 13.44-36.448z" style="" fill="#f7f7f7" data-original="#f44336" class=""></path></g></svg>